<svg id="Layer_1" data-name="Layer 1" xmlns="http://www.w3.org/2000/svg" width="95.466mm" height="75.636mm" viewBox="0 0 270.612 214.401"><title>diagram</title><path d="M135.306,208.972a97.7,97.7,0,1,1,97.7-97.7A97.816,97.816,0,0,1,135.306,208.972Zm0-194.409a96.7,96.7,0,1,0,96.7,96.7A96.814,96.814,0,0,0,135.306,14.563Z" fill="#fff"/><ellipse cx="72.666" cy="195.151" rx="43.5" ry="18.25" fill="#cadbe1"/><path d="M72.666,176.9c24.024,0,43.5,8.171,43.5,18.25S96.69,213.4,72.666,213.4s-43.5-8.171-43.5-18.25,19.476-18.25,43.5-18.25m0-1c-24.953,0-44.5,8.456-44.5,19.25s19.547,19.25,44.5,19.25,44.5-8.456,44.5-19.25-19.547-19.25-44.5-19.25Z" fill="#66798b"/><path d="M66.75,191.271h1.114c.094,0,.187,0,.279.006a.442.442,0,0,1,.224.059.134.134,0,0,1,.049.072.931.931,0,0,1,.027.1v.055a.382.382,0,0,1,.011.1v.535c0,.052,0,.1.006.148a.347.347,0,0,1-.017.137.239.239,0,0,1-.218.2c-.11.006-.241.011-.393.011H66.718a3.406,3.406,0,0,0-.378.017.242.242,0,0,0-.212.2.217.217,0,0,0,0,.1.162.162,0,0,1-.012.1.664.664,0,0,0,0,.148c0,.055,0,.1,0,.148v5.145a2.441,2.441,0,0,1-.015.3.221.221,0,0,1-.137.18.611.611,0,0,1-.175.023H64.86a2.027,2.027,0,0,1-.224-.012.222.222,0,0,1-.159-.076.413.413,0,0,1-.055-.224V193.4c0-.052,0-.1.006-.159a.384.384,0,0,0-.017-.148.21.21,0,0,1,0-.1.128.128,0,0,0-.011-.088.249.249,0,0,0-.224-.2,3.809,3.809,0,0,0-.4-.017H62.763c-.081,0-.169,0-.268,0a.877.877,0,0,1-.235-.015.267.267,0,0,1-.131-.1.312.312,0,0,1-.038-.142c0-.058-.006-.116-.006-.175v-.535a1.751,1.751,0,0,1,.017-.251.22.22,0,0,1,.1-.163.44.44,0,0,1,.12-.044H66.75Z" fill="#fff"/><path d="M72.74,191.085a3.711,3.711,0,0,1,1.89.393,3.249,3.249,0,0,1,1.18,1.1,2.119,2.119,0,0,1,.2.376,3.991,3.991,0,0,1,.142.421c.015.052.029.11.044.175a.32.32,0,0,1-.011.186.118.118,0,0,1-.082.082c-.04.011-.085.023-.136.038h-.088a.412.412,0,0,1-.148.017c-.053,0-.107-.006-.157-.006-.066,0-.145,0-.236.006s-.18,0-.267,0-.168-.012-.241-.023a.3.3,0,0,1-.294-.256.978.978,0,0,0-.11-.23,1.58,1.58,0,0,0-.547-.568,2.178,2.178,0,0,0-.512-.229,1.4,1.4,0,0,0-.465-.066,1.916,1.916,0,0,0-.486.055l-.159.038a.929.929,0,0,0-.148.049,1.9,1.9,0,0,0-1.049,1.049c-.037.088-.069.178-.1.273s-.062.194-.1.3c-.008.05-.015.1-.021.142s-.015.091-.023.142a.346.346,0,0,0-.015.137.46.46,0,0,1-.017.148.587.587,0,0,0-.017.18c0,.062.006.122.006.18a.575.575,0,0,1-.006.088.24.24,0,0,0,.006.087v.1a.251.251,0,0,1,.017.11.229.229,0,0,0,.015.11.9.9,0,0,0,.023.175c.014.079.029.154.043.223a2.078,2.078,0,0,0,.055.2,2.762,2.762,0,0,0,.393.782,1.617,1.617,0,0,0,.886.622l.283.082c.037.008.072.012.1.017s.067,0,.1,0h.088a.329.329,0,0,0,.142.017.954.954,0,0,0,.142-.017.33.33,0,0,0,.1-.011c.087-.014.169-.029.245-.044a.829.829,0,0,0,.224-.076,1.358,1.358,0,0,0,.431-.29,2.21,2.21,0,0,0,.322-.41,1.146,1.146,0,0,0,.11-.239c.029-.088.062-.175.1-.262.021-.081.043-.154.066-.219a.261.261,0,0,1,.142-.152.542.542,0,0,1,.163-.021h1.055a.3.3,0,0,1,.169.043.22.22,0,0,1,.082.175.717.717,0,0,1-.027.23l-.066.294c-.037.11-.072.215-.1.317a1.744,1.744,0,0,1-.127.3.992.992,0,0,0-.087.169.775.775,0,0,1-.087.159,3.151,3.151,0,0,1-1.748,1.311,1.571,1.571,0,0,1-.241.066l-.241.043a.2.2,0,0,1-.1.017.215.215,0,0,0-.1.017c-.05,0-.1,0-.148.006s-.1.008-.146.015h-.372a.808.808,0,0,1-.186-.021.371.371,0,0,0-.11-.011l-.152-.023-.163-.021c-.073-.021-.145-.04-.213-.055a2,2,0,0,1-.213-.055c-.066-.021-.131-.044-.2-.07s-.128-.053-.186-.082a3.331,3.331,0,0,1-1.108-.759A3.791,3.791,0,0,1,69.408,197a2.757,2.757,0,0,1-.11-.328c-.029-.11-.062-.223-.1-.338a.249.249,0,0,1-.023-.093.321.321,0,0,0-.011-.082,1.439,1.439,0,0,1-.032-.207,1.682,1.682,0,0,0-.034-.207.186.186,0,0,1-.017-.093.218.218,0,0,0,0-.082v-.207a.6.6,0,0,1,0-.328.16.16,0,0,0,0-.072.55.55,0,0,1,0-.059v-.1a1.16,1.16,0,0,0,.027-.186c0-.066.009-.131.015-.2a1.441,1.441,0,0,0,.034-.169q.011-.082.032-.169c.029-.1.055-.2.078-.3a1.65,1.65,0,0,1,.087-.279q.055-.142.114-.283a1.636,1.636,0,0,1,.137-.262,4.794,4.794,0,0,1,.36-.547,1.343,1.343,0,0,1,.12-.142c.044-.043.088-.087.131-.131a3.36,3.36,0,0,1,.575-.463,4.02,4.02,0,0,1,.683-.344,2.207,2.207,0,0,1,.273-.093c.094-.026.192-.049.294-.072a.445.445,0,0,1,.131-.021.338.338,0,0,0,.12-.021c.058-.008.114-.014.169-.017s.111-.009.169-.017a.068.068,0,0,1,.055,0A.068.068,0,0,0,72.74,191.085Z" fill="#fff"/><path d="M78.05,191.271h1.786a.45.45,0,0,1,.279.076.294.294,0,0,1,.11.159c.021.07.044.137.066.2.044.116.085.235.125.355s.082.242.127.366q.251.688.476,1.4t.486,1.41c.058.146.108.294.152.448s.094.3.152.448c.015.037.029.073.044.108a.178.178,0,0,0,.076.088l.044.021a.033.033,0,0,0,.043-.011.169.169,0,0,0,.12-.131c.023-.073.044-.139.066-.2.058-.168.111-.334.159-.5s.1-.329.159-.5c.146-.445.291-.892.437-1.338s.291-.9.437-1.35c.035-.116.072-.23.108-.344s.073-.227.11-.343c.021-.059.044-.117.066-.175a.284.284,0,0,1,.12-.142.254.254,0,0,1,.169-.055h1.879a.252.252,0,0,1,.159.044.254.254,0,0,1,.12.245v7.019c0,.081,0,.159-.006.235a.221.221,0,0,1-.072.171.262.262,0,0,1-.163.059c-.066,0-.139.006-.218.006h-.82c-.058-.015-.108-.026-.148-.034a.16.16,0,0,1-.1-.076.222.222,0,0,1-.044-.142v-3.551c-.006-.1-.011-.2-.011-.29v-.279c0-.058,0-.117.006-.18a.592.592,0,0,0-.017-.18.573.573,0,0,1-.021-.165.1.1,0,0,0-.066-.108.04.04,0,0,0-.05.011c-.011.014-.02.026-.026.032a.332.332,0,0,0-.072.1c-.018.041-.035.079-.049.116-.044.108-.087.221-.127.338s-.081.233-.125.349c-.015.044-.027.088-.038.131a.621.621,0,0,1-.049.131c-.037.094-.07.191-.1.285s-.062.189-.1.283a.132.132,0,0,0-.021.072.13.13,0,0,1-.021.07,1.33,1.33,0,0,0-.072.207,1.072,1.072,0,0,1-.082.219,1.274,1.274,0,0,0-.07.207,1.655,1.655,0,0,1-.072.218q-.13.318-.229.64c-.066.215-.139.427-.219.639a.124.124,0,0,0-.021.066.124.124,0,0,1-.021.066,1.629,1.629,0,0,0-.088.245,1.487,1.487,0,0,1-.087.247c-.021.05-.043.1-.059.142a.274.274,0,0,1-.082.108.21.21,0,0,1-.11.05.674.674,0,0,0-.131.027H82.07c-.05,0-.111,0-.18,0s-.139.006-.207.006a1.845,1.845,0,0,1-.192-.011.286.286,0,0,1-.131-.044.292.292,0,0,1-.119-.127q-.034-.071-.078-.169a2.3,2.3,0,0,1-.093-.267,2.066,2.066,0,0,0-.093-.268l-.032-.1c-.037-.088-.069-.181-.1-.279a2.6,2.6,0,0,0-.1-.279.6.6,0,0,1-.017-.059.416.416,0,0,0-.017-.061.993.993,0,0,1-.087-.207c-.021-.073-.047-.146-.076-.218a.234.234,0,0,1-.017-.055.166.166,0,0,0-.017-.055,1.8,1.8,0,0,1-.07-.218,1.072,1.072,0,0,0-.082-.219c-.058-.145-.113-.3-.163-.459s-.107-.317-.165-.469c-.066-.181-.128-.367-.186-.558a4.332,4.332,0,0,0-.207-.546,1.14,1.14,0,0,0-.12-.251.344.344,0,0,0-.044-.038c-.014-.011-.032-.009-.053.006a.116.116,0,0,0-.055.108.538.538,0,0,1-.023.154.457.457,0,0,0-.015.159c0,.053,0,.111,0,.169v.239c0,.081,0,.162-.011.241V198.8a.222.222,0,0,1-.044.142.219.219,0,0,1-.163.1.449.449,0,0,1-.165.017q-.087,0-.174,0h-.568c-.081,0-.152,0-.218-.006a.27.27,0,0,1-.165-.059.24.24,0,0,1-.076-.171c-.008-.076-.011-.154-.011-.235v-6.894a1.23,1.23,0,0,1,.011-.169.444.444,0,0,1,.032-.125.259.259,0,0,1,.175-.11.057.057,0,0,1,.044,0A.061.061,0,0,0,78.05,191.271Z" fill="#fff"/><ellipse cx="197.946" cy="195.166" rx="43.5" ry="18.25" fill="#cadbe1"/><path d="M197.946,213.915c-24.262,0-44-8.411-44-18.75s19.738-18.75,44-18.75,44,8.411,44,18.75S222.208,213.915,197.946,213.915Zm0-36.5c-23.71,0-43,7.963-43,17.75s19.29,17.75,43,17.75,43-7.963,43-17.75S221.656,177.415,197.946,177.415Z" fill="#66798b"/><path d="M187.82,184.627h1.02c.086,0,.172,0,.255.006a.4.4,0,0,1,.205.054.122.122,0,0,1,.045.066.852.852,0,0,1,.025.095v.05a.35.35,0,0,1,.01.089v.49c0,.047,0,.092.006.135a.318.318,0,0,1-.015.126.219.219,0,0,1-.2.18c-.1.006-.22.01-.36.01h-1.02a3.117,3.117,0,0,0-.346.015.222.222,0,0,0-.194.184.2.2,0,0,0,0,.091.148.148,0,0,1-.011.089.607.607,0,0,0,0,.135c0,.05,0,.095,0,.135v4.709a2.234,2.234,0,0,1-.014.275.2.2,0,0,1-.126.165.559.559,0,0,1-.16.021h-.85a1.855,1.855,0,0,1-.205-.011.2.2,0,0,1-.145-.07.378.378,0,0,1-.05-.205v-4.884c0-.047,0-.095.006-.145a.351.351,0,0,0-.015-.135.192.192,0,0,1,0-.089.117.117,0,0,0-.01-.081.228.228,0,0,0-.205-.184,3.486,3.486,0,0,0-.365-.015h-.929c-.074,0-.155,0-.246,0a.8.8,0,0,1-.215-.014.244.244,0,0,1-.12-.091.285.285,0,0,1-.035-.13c0-.053-.006-.106-.006-.16v-.49a1.6,1.6,0,0,1,.015-.23.2.2,0,0,1,.095-.149.4.4,0,0,1,.11-.04h4.049Z" fill="#fff"/><path d="M194.262,191.356a1.974,1.974,0,0,1,.025.22.142.142,0,0,1-.106.149.294.294,0,0,1-.139.031h-.7c-.06,0-.119,0-.174-.006a.23.23,0,0,1-.135-.045.249.249,0,0,1-.1-.116.382.382,0,0,0-.095-.124.189.189,0,0,0-.05-.035.137.137,0,0,0-.081-.006.689.689,0,0,0-.095.05.559.559,0,0,1-.095.05.591.591,0,0,1-.11.07l-.12.06a1.5,1.5,0,0,1-.269.095l-.29.075a.819.819,0,0,1-.135.025c-.043,0-.088.008-.135.015a.449.449,0,0,0-.06,0,.282.282,0,0,1-.06.006h-.109a.54.54,0,0,1-.2,0h-.089a.385.385,0,0,0-.135-.015.318.318,0,0,1-.126-.015c-.066-.013-.13-.025-.19-.035a.606.606,0,0,1-.17-.054,1.653,1.653,0,0,1-.494-.286,1.184,1.184,0,0,1-.325-.465,1.331,1.331,0,0,1-.056-.149c-.017-.054-.032-.11-.045-.17a.211.211,0,0,1-.015-.1.4.4,0,0,0,0-.1.518.518,0,0,1-.015-.124.537.537,0,0,1,0-.135.85.85,0,0,0,.021-.17c.02-.073.039-.148.06-.225a.849.849,0,0,1,.08-.205,1.305,1.305,0,0,1,.391-.439,2.2,2.2,0,0,1,.559-.261,1.264,1.264,0,0,1,.271-.07c.092-.013.186-.029.279-.05a1.062,1.062,0,0,1,.17-.025,1,1,0,0,0,.18-.025.4.4,0,0,1,.139-.014.522.522,0,0,0,.151-.015.481.481,0,0,1,.139-.02.593.593,0,0,0,.151-.021c.139-.033.268-.061.385-.085a.605.605,0,0,0,.315-.174.456.456,0,0,0,.12-.2.088.088,0,0,0,0-.049.059.059,0,0,1,.006-.04.137.137,0,0,0,.01-.06v-.06a.8.8,0,0,1-.015-.08.335.335,0,0,0-.015-.071.626.626,0,0,0-.42-.409,1.011,1.011,0,0,0-.215-.046,1.7,1.7,0,0,0-.254-.01,2.04,2.04,0,0,0-.251.025,1.542,1.542,0,0,0-.209.05.546.546,0,0,0-.116.054q-.054.036-.1.075a.672.672,0,0,0-.1.11.455.455,0,0,0-.075.13c-.033.067-.061.13-.085.19a.2.2,0,0,1-.145.12.669.669,0,0,1-.17.021h-.559q-.05,0-.1,0a.265.265,0,0,1-.089,0h-.091a.1.1,0,0,0-.05-.011.062.062,0,0,1-.049-.02.157.157,0,0,1-.11-.13.244.244,0,0,1,0-.1c.006-.033.013-.063.02-.089a2.091,2.091,0,0,1,.066-.205.891.891,0,0,1,.085-.176c.02-.033.039-.066.06-.1s.039-.067.06-.1a1.17,1.17,0,0,1,.2-.211.256.256,0,0,0,.06-.049l.089-.071c.028-.02.057-.039.091-.06a1.649,1.649,0,0,1,.36-.174c.127-.043.257-.085.391-.126a1.581,1.581,0,0,1,.25-.039,1.855,1.855,0,0,0,.259-.04.367.367,0,0,1,.126,0c.056.007.091,0,.1-.01a6,6,0,0,1,.785.029,2.946,2.946,0,0,1,.679.151,1.72,1.72,0,0,1,.524.294,1.2,1.2,0,0,1,.34.476,1.141,1.141,0,0,1,.081.389c.006.148.01.3.01.451v2.614a1.478,1.478,0,0,0,.039.356.194.194,0,0,1,.011.064A.2.2,0,0,0,194.262,191.356Zm-1.47-1.54a.564.564,0,0,0,.01-.114.579.579,0,0,0-.01-.116.329.329,0,0,1-.02-.11.1.1,0,0,0-.04-.08.24.24,0,0,0-.151-.04.587.587,0,0,1-.07.015c-.02,0-.043.008-.07.015a.808.808,0,0,1-.149.029,1.251,1.251,0,0,0-.16.031.3.3,0,0,1-.091.01,1.855,1.855,0,0,1-.259.04,1.057,1.057,0,0,0-.25.05c-.053.013-.1.025-.151.035a.77.77,0,0,0-.139.045.911.911,0,0,0-.356.271.644.644,0,0,0-.1.5.539.539,0,0,0,.11.28.481.481,0,0,0,.211.174,1.211,1.211,0,0,0,.3.095,1.378,1.378,0,0,0,.35.015,1.556,1.556,0,0,0,.345-.066.849.849,0,0,0,.41-.254,1.2,1.2,0,0,0,.23-.435.632.632,0,0,0,.025-.145.778.778,0,0,1,.025-.155Z" fill="#fff"/><path d="M196.979,184.7a.352.352,0,0,1,.07.24v.58a.217.217,0,0,1-.07.19.277.277,0,0,1-.155.06,1.872,1.872,0,0,1-.205.01h-.559a1.629,1.629,0,0,1-.2-.01.272.272,0,0,1-.145-.06.176.176,0,0,1-.054-.114,1.455,1.455,0,0,1-.021-.191c0-.07,0-.141,0-.215s.006-.137.006-.19,0-.1,0-.145a.257.257,0,0,1,.036-.114.127.127,0,0,1,.054-.06c.024-.014.049-.027.075-.04a.4.4,0,0,0,.05,0,.237.237,0,0,1,.049-.006h.731a1.659,1.659,0,0,1,.19.01A.226.226,0,0,1,196.979,184.7Zm.07,6.51c0,.133,0,.246-.01.339a.213.213,0,0,1-.18.19.305.305,0,0,1-.13.015c-.046,0-.1,0-.149,0h-.561a1.409,1.409,0,0,1-.174-.011.174.174,0,0,1-.126-.06.281.281,0,0,1-.066-.174c0-.07,0-.145,0-.225v-4.421a.272.272,0,0,1,.04-.159.278.278,0,0,1,.169-.091.1.1,0,0,1,.056,0,.092.092,0,0,0,.054-.006h.5c.039,0,.085,0,.134-.006a.5.5,0,0,1,.126.006h.08a.9.9,0,0,0,.11.031.118.118,0,0,1,.081.06.247.247,0,0,1,.045.139c0,.06,0,.123,0,.19Z" fill="#fff"/><path d="M200.794,186.457a2.961,2.961,0,0,1,1.354.24,2.11,2.11,0,0,1,.865.739,1.8,1.8,0,0,1,.24.55.646.646,0,0,1,.035.131.289.289,0,0,1,0,.139.176.176,0,0,1-.141.126,1.7,1.7,0,0,1-.24.014h-.7a.271.271,0,0,1-.155-.039.209.209,0,0,1-.11-.126,1.193,1.193,0,0,0-.08-.174,1.426,1.426,0,0,0-.131-.2.858.858,0,0,0-.159-.159,1.192,1.192,0,0,0-.311-.141.393.393,0,0,0-.12-.02.3.3,0,0,1-.109-.02h-.1a1.041,1.041,0,0,0-.319.039,1.1,1.1,0,0,0-.47.275,1.429,1.429,0,0,0-.29.445,1.083,1.083,0,0,0-.075.236c-.017.084-.035.172-.054.265a.312.312,0,0,0-.011.08.31.31,0,0,1-.01.08,1.418,1.418,0,0,0-.015.28,1.986,1.986,0,0,0,.025.28.386.386,0,0,0,.011.11.7.7,0,0,1,.024.139.814.814,0,0,0,.025.139,2.422,2.422,0,0,0,.191.42,1.066,1.066,0,0,0,.279.321.864.864,0,0,0,.12.07.617.617,0,0,0,.226.089c.075.014.172.028.285.04h.06a.137.137,0,0,0,.06-.01h.089c.047-.014.092-.025.135-.035s.085-.022.126-.035a1,1,0,0,0,.46-.381.567.567,0,0,0,.07-.114c.02-.043.036-.081.05-.114.027-.074.049-.139.07-.2a.238.238,0,0,1,.139-.135.734.734,0,0,1,.29-.035c.133,0,.243,0,.329,0,.047,0,.1,0,.145,0a.287.287,0,0,1,.126.015h.08a.818.818,0,0,0,.081.014.114.114,0,0,1,.06.025.187.187,0,0,1,.064.116.364.364,0,0,1,0,.155,3.2,3.2,0,0,1-.22.59,2.209,2.209,0,0,1-1.31,1.07,1.407,1.407,0,0,1-.211.045,1.742,1.742,0,0,0-.219.045.707.707,0,0,1-.12.01.685.685,0,0,0-.12.011h-.11a.381.381,0,0,1-.151.014,1.268,1.268,0,0,1-.149-.014.419.419,0,0,0-.145-.015.385.385,0,0,1-.135-.015c-.033-.007-.067-.011-.1-.015s-.066-.008-.1-.014l-.211-.06a1.525,1.525,0,0,1-.19-.071,2.482,2.482,0,0,1-.79-.515,2.413,2.413,0,0,1-.52-.784.9.9,0,0,1-.08-.2c-.021-.07-.04-.142-.06-.215a.294.294,0,0,1-.01-.075.228.228,0,0,0-.021-.085.552.552,0,0,1-.02-.145.56.56,0,0,0-.02-.145v-.17a.293.293,0,0,1-.021-.114.3.3,0,0,1,.021-.116.24.24,0,0,0,0-.089.154.154,0,0,1,0-.08.366.366,0,0,0,.014-.131.3.3,0,0,1,.015-.12c.033-.12.06-.234.08-.345a1.944,1.944,0,0,1,.091-.325,2.727,2.727,0,0,1,.555-.85,2.464,2.464,0,0,1,.855-.55,1.227,1.227,0,0,1,.289-.085c.1-.017.2-.039.311-.066a1.146,1.146,0,0,1,.149-.01A1.167,1.167,0,0,0,200.794,186.457Z" fill="#fff"/><path d="M204.737,184.637h.875a.235.235,0,0,1,.155.05.226.226,0,0,1,.091.17c0,.033,0,.064,0,.095a.681.681,0,0,1,.006.095v1.509c0,.047,0,.1-.006.16a1.048,1.048,0,0,0,.006.176.311.311,0,0,0,.045.139.117.117,0,0,0,.1.054.061.061,0,0,1,.04-.02.064.064,0,0,0,.04-.02.918.918,0,0,0,.13-.116.664.664,0,0,1,.139-.114,1.785,1.785,0,0,1,.23-.141c.08-.039.166-.08.259-.12a.191.191,0,0,1,.081-.02.259.259,0,0,0,.089-.02,1.024,1.024,0,0,1,.211-.04c.073-.007.153-.01.24-.01h.095a.466.466,0,0,1,.095.01h.06l.135.02.135.021q.169.05.314.1a1.975,1.975,0,0,1,.286.135,1.13,1.13,0,0,1,.354.354,2.264,2.264,0,0,1,.225.476c.014.053.025.107.035.165s.022.112.036.165a.931.931,0,0,1,.02.19,1.089,1.089,0,0,0,.02.2v.11a.478.478,0,0,1,.01.174c-.006.064-.01.121-.01.176v2.27c0,.113,0,.233.01.36a.419.419,0,0,1-.07.29.21.21,0,0,1-.159.064c-.074,0-.148.006-.22.006h-.5a2.065,2.065,0,0,1-.269-.015.2.2,0,0,1-.16-.126.324.324,0,0,1-.029-.145v-2.334a6.994,6.994,0,0,0-.04-.776.878.878,0,0,0-.25-.555.81.81,0,0,0-.34-.2.265.265,0,0,0-.064-.01.265.265,0,0,1-.066-.01q-.04-.01-.1-.021a.181.181,0,0,0-.106.011.878.878,0,0,1-.124.01.422.422,0,0,0-.126.02,1.252,1.252,0,0,0-.4.18.808.808,0,0,0-.264.375,2.165,2.165,0,0,0-.116.53,5.608,5.608,0,0,0-.025.625c0,.219.006.432.006.64v1.484a.422.422,0,0,1-.05.225.163.163,0,0,1-.08.056.954.954,0,0,0-.1.035.307.307,0,0,1-.135.01,1.042,1.042,0,0,0-.145-.01q-.09,0-.209,0c-.081,0-.16.006-.24.006a1.518,1.518,0,0,1-.22-.015.316.316,0,0,1-.151-.054.205.205,0,0,1-.064-.155c0-.071-.006-.142-.006-.215v-6.009c0-.086,0-.191-.01-.311a.454.454,0,0,1,.04-.259.339.339,0,0,1,.159-.1.059.059,0,0,1,.04,0A.059.059,0,0,0,204.737,184.637Z" fill="#fff"/><path d="M212.05,184.7a.352.352,0,0,1,.07.24v.58a.217.217,0,0,1-.07.19.277.277,0,0,1-.155.06,1.872,1.872,0,0,1-.205.01h-.559a1.629,1.629,0,0,1-.2-.01.272.272,0,0,1-.145-.06.176.176,0,0,1-.054-.114,1.455,1.455,0,0,1-.021-.191c0-.07,0-.141,0-.215s.006-.137.006-.19,0-.1,0-.145a.257.257,0,0,1,.036-.114.127.127,0,0,1,.054-.06c.024-.014.049-.027.075-.04a.4.4,0,0,0,.05,0,.237.237,0,0,1,.049-.006h.731a1.659,1.659,0,0,1,.19.01A.226.226,0,0,1,212.05,184.7Zm.07,6.51c0,.133,0,.246-.01.339a.213.213,0,0,1-.18.19.305.305,0,0,1-.13.015c-.046,0-.1,0-.149,0h-.561a1.409,1.409,0,0,1-.174-.011.174.174,0,0,1-.126-.06.281.281,0,0,1-.066-.174c0-.07,0-.145,0-.225v-4.421a.272.272,0,0,1,.04-.159.278.278,0,0,1,.169-.091.1.1,0,0,1,.056,0,.092.092,0,0,0,.054-.006h.5c.039,0,.085,0,.134-.006a.5.5,0,0,1,.126.006h.08a.9.9,0,0,0,.11.031.118.118,0,0,1,.081.06.247.247,0,0,1,.045.139c0,.06,0,.123,0,.19Z" fill="#fff"/><path d="M187.438,199.935a.833.833,0,0,1,.025.205.653.653,0,0,1-.015.205v.1a.494.494,0,0,1-.01.1,1.154,1.154,0,0,0-.02.216.841.841,0,0,1-.031.215c-.013.053-.025.11-.035.17s-.022.116-.035.169q-.071.2-.13.381a2.408,2.408,0,0,1-.151.35.222.222,0,0,0-.029.064.217.217,0,0,1-.031.066c-.033.053-.064.106-.095.16s-.061.106-.095.159-.066.078-.095.116a.335.335,0,0,0-.066.134.152.152,0,0,0,.011.145c.027.038.049.073.07.106a.928.928,0,0,0,.2.18.24.24,0,0,0,.04.05,2.181,2.181,0,0,1,.23.2c.027.033.06.074.1.12a.169.169,0,0,1,.021.18.649.649,0,0,1-.135.18c-.057.053-.112.106-.165.16-.033.032-.071.071-.11.114a.355.355,0,0,1-.141.095.172.172,0,0,1-.194-.02l-.135-.11a2.8,2.8,0,0,1-.215-.2,2.028,2.028,0,0,0-.226-.2.829.829,0,0,1-.13-.114.3.3,0,0,0-.17-.085.223.223,0,0,0-.139.006c-.04.017-.074.031-.1.045a2.023,2.023,0,0,1-.219.085c-.074.024-.146.049-.22.075a1.431,1.431,0,0,1-.275.054,2.688,2.688,0,0,0-.285.045.707.707,0,0,1-.12.01.907.907,0,0,0-.131.011,1.436,1.436,0,0,1-.174.014.472.472,0,0,1-.174-.014h-.121a.832.832,0,0,0-.19-.021.92.92,0,0,1-.19-.02.612.612,0,0,0-.139-.025.623.623,0,0,1-.141-.025c-.113-.033-.223-.066-.329-.095a2.1,2.1,0,0,1-.31-.114,2.948,2.948,0,0,1-.95-.661,3.205,3.205,0,0,1-.65-.949c-.04-.093-.077-.187-.11-.28s-.067-.19-.1-.29c-.02-.074-.038-.148-.054-.225s-.032-.152-.045-.226a.368.368,0,0,1-.021-.124.422.422,0,0,0-.02-.126.491.491,0,0,1-.006-.12.494.494,0,0,0,0-.12v-.11a.583.583,0,0,1,0-.31.436.436,0,0,0-.006-.06.084.084,0,0,1,.006-.05c0-.033,0-.066,0-.1a.808.808,0,0,0,.006-.1c.007-.053.013-.109.02-.165s.014-.112.021-.166a2.214,2.214,0,0,0,.06-.279,1.187,1.187,0,0,1,.07-.271,3.8,3.8,0,0,1,.76-1.35,3.412,3.412,0,0,1,1.26-.85,1.656,1.656,0,0,1,.275-.08c.1-.021.191-.043.285-.07a.249.249,0,0,1,.095-.021.457.457,0,0,0,.095-.01l.3-.029a.076.076,0,0,1,.056,0,.089.089,0,0,0,.054,0,3.873,3.873,0,0,1,1.135.114,3.082,3.082,0,0,1,.875.385,2.305,2.305,0,0,1,.34.24.217.217,0,0,1,.07.06.189.189,0,0,0,.07.06c.046.04.092.082.135.126a.783.783,0,0,1,.114.145.36.36,0,0,0,.056.06.307.307,0,0,1,.054.06c.074.106.146.216.22.329a2.583,2.583,0,0,1,.19.35c.04.093.075.184.1.271s.061.18.095.279a1.691,1.691,0,0,1,.05.205c.014.07.031.142.05.215a.528.528,0,0,1,.02.135.382.382,0,0,0,.021.126.307.307,0,0,1,.014.124.438.438,0,0,0,.006.116Zm-1.55.439a.457.457,0,0,0,.02-.155.468.468,0,0,0-.02-.155v-.17a.2.2,0,0,1-.006-.074.125.125,0,0,0-.014-.075.483.483,0,0,1-.021-.139.545.545,0,0,0-.02-.141c-.027-.093-.049-.18-.066-.259a1.167,1.167,0,0,0-.074-.23,2.659,2.659,0,0,0-.265-.5,1.639,1.639,0,0,0-.375-.385,1.741,1.741,0,0,0-.511-.25,2.254,2.254,0,0,0-.67-.091.674.674,0,0,1-.114.011.517.517,0,0,0-.106.01c-.073.02-.146.036-.219.05a1.046,1.046,0,0,0-.211.06,1.669,1.669,0,0,0-.675.5,2.544,2.544,0,0,0-.4.774,1.843,1.843,0,0,0-.045.215,1.559,1.559,0,0,1-.046.215.385.385,0,0,0-.01.075.294.294,0,0,1-.01.075.194.194,0,0,0-.01.11.208.208,0,0,1-.01.11v.109a.876.876,0,0,0,0,.261v.11a.455.455,0,0,1,.015.145.425.425,0,0,0,.014.145.175.175,0,0,1,.01.06.189.189,0,0,0,.011.06c.013.06.027.12.039.18s.027.12.04.18a2.561,2.561,0,0,0,.375.734,1.518,1.518,0,0,0,.615.485l.149.06a.807.807,0,0,0,.135.045l.145.035a.808.808,0,0,0,.11.015,1.033,1.033,0,0,0,.109.006h.071a.271.271,0,0,0,.114.015c.043,0,.082-.006.116-.006h.089a.437.437,0,0,1,.091-.01.169.169,0,0,0,.08-.021.139.139,0,0,0,.05-.24.667.667,0,0,0-.145-.155.814.814,0,0,1-.155-.155l-.05-.07a.121.121,0,0,1-.01-.11.248.248,0,0,1,.089-.155.489.489,0,0,0,.12-.135.421.421,0,0,1,.045-.054.363.363,0,0,0,.046-.056.224.224,0,0,0,.05-.039.566.566,0,0,1,.049-.066.207.207,0,0,1,.071-.054.229.229,0,0,1,.124-.066.209.209,0,0,1,.155.035.9.9,0,0,1,.19.16,1.2,1.2,0,0,0,.191.17l.06.06c.027.02.061.043.1.07a.18.18,0,0,0,.145.02.285.285,0,0,0,.11-.1c.013-.021.028-.042.045-.066a.51.51,0,0,0,.045-.075,2.02,2.02,0,0,0,.085-.25c.024-.086.049-.176.075-.269.007-.04.013-.081.02-.12l.021-.12c.006-.047.011-.092.014-.135s.006-.089.006-.135Z" fill="#fff"/><path d="M190.1,196.7a.35.35,0,0,1,.07.24v.579a.22.22,0,0,1-.07.191.277.277,0,0,1-.155.06c-.063.006-.131.01-.205.01h-.559c-.074,0-.138,0-.2-.01a.272.272,0,0,1-.145-.06.18.18,0,0,1-.054-.116,1.433,1.433,0,0,1-.021-.19c0-.07,0-.141,0-.215s.006-.137.006-.19,0-.1,0-.145a.263.263,0,0,1,.036-.116.134.134,0,0,1,.054-.06c.024-.013.049-.027.075-.039a.259.259,0,0,0,.05-.006.4.4,0,0,1,.049-.006h.731a1.652,1.652,0,0,1,.19.011A.219.219,0,0,1,190.1,196.7Zm.07,6.509c0,.134,0,.247-.01.34s-.067.156-.18.19a.329.329,0,0,1-.13.015c-.046,0-.1-.006-.149-.006h-.561a1.413,1.413,0,0,1-.174-.01.179.179,0,0,1-.126-.06.282.282,0,0,1-.066-.176c0-.07,0-.144,0-.225v-4.419a.219.219,0,0,1,.209-.25.1.1,0,0,1,.056-.006.094.094,0,0,0,.054,0h.5c.039,0,.085,0,.134-.006a.5.5,0,0,1,.126.006h.08c.04.013.077.022.11.029a.123.123,0,0,1,.081.06.247.247,0,0,1,.045.139c0,.06,0,.124,0,.191Z" fill="#fff"/><path d="M196.449,198.656a.2.2,0,0,1,.075.165q0,.115,0,.234v4.27q0,.08,0,.155c0,.05-.006.1-.006.155s-.011.1-.015.145-.008.092-.014.145c-.027.093-.049.181-.066.265a1.083,1.083,0,0,1-.075.236,1.948,1.948,0,0,1-.434.629,2.169,2.169,0,0,1-.646.41,1.382,1.382,0,0,1-.219.08c-.074.021-.151.04-.23.06a1.222,1.222,0,0,1-.22.04c-.074.007-.146.017-.22.031a.759.759,0,0,0-.08,0,.854.854,0,0,1-.091.006.265.265,0,0,1-.089,0,.348.348,0,0,0-.1.006.867.867,0,0,1-.259,0h-.091a.387.387,0,0,1-.08-.01.649.649,0,0,0-.165-.021.535.535,0,0,1-.155-.02.111.111,0,0,0-.05-.01.123.123,0,0,1-.05-.01c-.067-.014-.131-.029-.2-.046a1.252,1.252,0,0,1-.184-.064,2.8,2.8,0,0,1-.681-.4,1.424,1.424,0,0,1-.439-.656.1.1,0,0,1-.021-.06.111.111,0,0,0-.01-.05.22.22,0,0,1,.025-.2.264.264,0,0,1,.155-.085.964.964,0,0,1,.226-.014q.123,0,.234,0h.34a.5.5,0,0,1,.085.006.719.719,0,0,0,.085,0,.323.323,0,0,1,.2.106c.027.043.067.1.12.174a1.111,1.111,0,0,0,.089.1.106.106,0,0,0,.021.029.169.169,0,0,1,.02.031,1.422,1.422,0,0,0,.17.11,1.386,1.386,0,0,0,.2.089.623.623,0,0,0,.141.025.776.776,0,0,1,.149.025h.11a.439.439,0,0,0,.18.006,1.221,1.221,0,0,0,.17-.035.228.228,0,0,1,.085-.021.183.183,0,0,0,.075-.02,1.022,1.022,0,0,0,.35-.24,1.321,1.321,0,0,0,.229-.35.758.758,0,0,0,.031-.12q.01-.061.029-.13a1.051,1.051,0,0,0,.025-.2c0-.07.006-.141.006-.215a.759.759,0,0,1,0-.08.148.148,0,0,0,0-.071.18.18,0,0,1-.015-.089.142.142,0,0,0-.015-.081.065.065,0,0,0-.025-.029.287.287,0,0,1-.035-.031.181.181,0,0,0-.145.04c-.036.033-.071.064-.1.091q-.09.069-.18.13a1.423,1.423,0,0,1-.2.11,1.4,1.4,0,0,1-.22.08c-.074.02-.149.04-.23.06-.039.007-.078.011-.114.015a.753.753,0,0,0-.1.015,1.05,1.05,0,0,1-.16.01,1.037,1.037,0,0,1-.16-.01h-.08a.2.2,0,0,0-.066-.011.3.3,0,0,1-.075-.01l-.269-.054a1.049,1.049,0,0,1-.24-.075,1.749,1.749,0,0,1-.695-.474,2.7,2.7,0,0,1-.445-.735.9.9,0,0,1-.07-.23,1.676,1.676,0,0,0-.06-.24.257.257,0,0,0-.011-.081.749.749,0,0,1-.02-.174.758.758,0,0,0-.02-.174.47.47,0,0,1-.01-.1v-.095a.6.6,0,0,1-.011-.124.624.624,0,0,1,.011-.126v-.1a.266.266,0,0,0,0-.081.136.136,0,0,1,.015-.08c.013-.067.024-.131.029-.2s.017-.128.031-.2c.04-.133.081-.259.124-.379a1.875,1.875,0,0,1,.166-.34,1.107,1.107,0,0,1,.114-.184c.043-.057.088-.116.135-.176a.453.453,0,0,1,.085-.1c.036-.032.071-.063.1-.089l.06-.06q.05-.04.1-.075c.033-.024.067-.045.1-.064a1.977,1.977,0,0,1,.269-.141,3.049,3.049,0,0,1,.31-.11.607.607,0,0,1,.166-.035.809.809,0,0,0,.165-.025.358.358,0,0,1,.11,0c.046.007.077,0,.089-.01a2,2,0,0,1,.575.06,1.625,1.625,0,0,1,.455.2.445.445,0,0,1,.06.045l.071.054c.039.033.077.067.11.1a.507.507,0,0,0,.12.089.278.278,0,0,0,.054.021.052.052,0,0,0,.054-.01.091.091,0,0,0,.06-.071.574.574,0,0,1,.031-.1,1.049,1.049,0,0,0,.035-.106.217.217,0,0,1,.054-.095.3.3,0,0,1,.145-.045q.086,0,.176,0h.509c.074,0,.138,0,.2,0A.248.248,0,0,1,196.449,198.656Zm-1.37,3.088a1.153,1.153,0,0,0,.07-.229,1.963,1.963,0,0,0,.04-.3,2.779,2.779,0,0,0,0-.3,1.2,1.2,0,0,0-.035-.271.105.105,0,0,1-.014-.066.156.156,0,0,0-.006-.064c-.014-.047-.027-.093-.04-.141a.755.755,0,0,0-.049-.13,1.207,1.207,0,0,0-.4-.54,1.279,1.279,0,0,0-.76-.19.061.061,0,0,1-.054.015.145.145,0,0,0-.066,0c-.046.014-.089.025-.13.035s-.08.022-.12.036a.852.852,0,0,0-.4.329,2.2,2.2,0,0,0-.23.49.247.247,0,0,0-.02.081.548.548,0,0,1-.01.08,1.536,1.536,0,0,0-.04.319,1.3,1.3,0,0,0,.02.34v.1a1.319,1.319,0,0,1,.031.155q.01.075.029.155a2,2,0,0,0,.22.455.946.946,0,0,0,.36.315,1.631,1.631,0,0,0,.28.1.465.465,0,0,1,.11.01l.06,0a.1.1,0,0,0,.06,0h.1c.06-.014.117-.024.17-.031a.446.446,0,0,0,.16-.05,1.015,1.015,0,0,0,.4-.279A1.519,1.519,0,0,0,195.079,201.744Z" fill="#fff"/><path d="M203.084,200.964a.6.6,0,0,1,.02.17.592.592,0,0,1-.02.17v.1a.514.514,0,0,0-.015.159.519.519,0,0,1-.015.16,1.186,1.186,0,0,0-.029.13c-.007.04-.014.084-.021.131-.027.073-.049.148-.07.225a1.065,1.065,0,0,1-.08.215,2.193,2.193,0,0,1-.55.78,2.942,2.942,0,0,1-.82.5,1.279,1.279,0,0,1-.246.075c-.084.017-.167.035-.255.056a.3.3,0,0,1-.109.02.54.54,0,0,0-.11.01.367.367,0,0,0-.066.006.548.548,0,0,1-.064,0,1.064,1.064,0,0,1-.16.015.489.489,0,0,1-.17-.015h-.1a.326.326,0,0,0-.1,0,.242.242,0,0,1-.1-.015.294.294,0,0,0-.075-.01.548.548,0,0,1-.085-.01,1.739,1.739,0,0,0-.2-.05.94.94,0,0,1-.19-.06c-.081-.027-.155-.053-.226-.081a1.933,1.933,0,0,1-.215-.1,2.61,2.61,0,0,1-.6-.491,2.465,2.465,0,0,1-.42-.67.769.769,0,0,1-.075-.19q-.025-.1-.054-.209a.237.237,0,0,1-.02-.091.241.241,0,0,0-.021-.091.709.709,0,0,1-.02-.165.718.718,0,0,0-.02-.165.446.446,0,0,1-.011-.091v-.089a.494.494,0,0,1-.014-.17.62.62,0,0,1,.025-.17v-.07a.433.433,0,0,0,0-.1.22.22,0,0,1,.015-.1.47.47,0,0,0,.01-.1.274.274,0,0,1,.02-.095c.027-.086.05-.172.071-.254a1.527,1.527,0,0,1,.08-.246,2.51,2.51,0,0,1,.43-.685,3.044,3.044,0,0,1,.61-.5,2.225,2.225,0,0,1,.211-.091c.073-.027.146-.056.22-.089a1.176,1.176,0,0,1,.269-.07,2.689,2.689,0,0,0,.29-.06,1.151,1.151,0,0,1,.151-.01.955.955,0,0,0,.139-.011,3.294,3.294,0,0,1,1,.12,2.738,2.738,0,0,1,.755.36q.111.082.226.176a1.124,1.124,0,0,1,.2.205c.053.067.1.133.144.2s.089.137.135.211a.948.948,0,0,1,.11.234c.027.084.057.172.091.265a1.212,1.212,0,0,1,.049.17c.014.06.027.12.04.18a.31.31,0,0,1,.01.08.4.4,0,0,0,.01.081.207.207,0,0,1,.011.11A.189.189,0,0,0,203.084,200.964Zm-1.4.36a1.072,1.072,0,0,0,0-.289v-.081a.31.31,0,0,1-.02-.11.643.643,0,0,0-.01-.109.151.151,0,0,0-.01-.06c-.014-.054-.025-.109-.036-.166a.845.845,0,0,0-.045-.165,1.8,1.8,0,0,0-.259-.445,1.041,1.041,0,0,0-.4-.294c-.04-.014-.08-.025-.12-.036s-.084-.021-.13-.035a.566.566,0,0,0-.17-.014q-.09,0-.18,0a.1.1,0,0,1-.07.015.16.16,0,0,0-.07.006l-.135.035a.384.384,0,0,0-.114.045,1.006,1.006,0,0,0-.406.315,1.638,1.638,0,0,0-.244.474,1.253,1.253,0,0,0-.046.211c-.01.073-.021.146-.035.219a.49.49,0,0,0-.01.1v.1a.712.712,0,0,0-.015.209,1.066,1.066,0,0,0,.025.211v.089a1.442,1.442,0,0,1,.031.155,1.307,1.307,0,0,0,.029.155,2.3,2.3,0,0,0,.215.485,1.036,1.036,0,0,0,.365.335.627.627,0,0,0,.155.081,1.487,1.487,0,0,0,.176.049.154.154,0,0,0,.07.006.178.178,0,0,1,.07.006.722.722,0,0,0,.085.014.216.216,0,0,0,.085,0h.08a1.252,1.252,0,0,1,.16-.031.523.523,0,0,0,.149-.039,1.11,1.11,0,0,0,.42-.271,1.452,1.452,0,0,0,.271-.42,1.246,1.246,0,0,0,.06-.2c.013-.067.029-.137.05-.211a.372.372,0,0,0,.01-.075.292.292,0,0,1,.01-.074v-.095A.47.47,0,0,1,201.684,201.324Z" fill="#fff"/><path d="M207.229,198.465a2.179,2.179,0,0,1,1,.17,1.472,1.472,0,0,1,.631.561,1.06,1.06,0,0,1,.11.234q.04.126.08.255a1.076,1.076,0,0,1,.025.149.623.623,0,0,0,.025.141.2.2,0,0,0,.01.08,2.171,2.171,0,0,1,.02.29v2.8c0,.127,0,.248,0,.365a.221.221,0,0,1-.145.225.43.43,0,0,1-.141.02h-.7a1.27,1.27,0,0,1-.216-.015.206.206,0,0,1-.144-.084.3.3,0,0,1-.046-.156c0-.063,0-.131,0-.2v-2.19c0-.247-.01-.476-.031-.685a1.112,1.112,0,0,0-.18-.536.737.737,0,0,0-.41-.279.269.269,0,0,0-.1-.021.379.379,0,0,1-.114-.02.5.5,0,0,0-.126-.006.734.734,0,0,0-.114.015.288.288,0,0,1-.071.01.234.234,0,0,0-.06.01,1.125,1.125,0,0,0-.37.16.936.936,0,0,0-.379.67,7.319,7.319,0,0,0-.06.99v2.039a.326.326,0,0,1-.031.151.213.213,0,0,1-.159.13,1.5,1.5,0,0,1-.271.02h-.5c-.074,0-.148,0-.22-.01a.224.224,0,0,1-.16-.07.394.394,0,0,1-.064-.259c0-.114,0-.22,0-.321v-4.069c0-.074,0-.141.006-.2a.243.243,0,0,1,.054-.149.122.122,0,0,1,.066-.045.628.628,0,0,1,.095-.025h.05a.512.512,0,0,1,.1-.01h.524q.082,0,.155,0a.615.615,0,0,1,.135.025.165.165,0,0,1,.095.091,1.022,1.022,0,0,1,.046.139.175.175,0,0,1,0,.07.082.082,0,0,0,.015.06.139.139,0,0,0,.035.06l.045.031a.2.2,0,0,0,.18-.075.642.642,0,0,1,.151-.135,2.351,2.351,0,0,1,.6-.319.836.836,0,0,1,.184-.04q.1-.01.205-.029a.247.247,0,0,1,.091-.006A.172.172,0,0,0,207.229,198.465Z" fill="#fff"/><path d="M215.374,198.656a.2.2,0,0,1,.075.165q0,.115,0,.234v4.27q0,.08,0,.155c0,.05-.006.1-.006.155s-.011.1-.015.145-.008.092-.014.145c-.027.093-.049.181-.066.265a1.083,1.083,0,0,1-.075.236,1.948,1.948,0,0,1-.434.629,2.169,2.169,0,0,1-.646.41,1.382,1.382,0,0,1-.219.08c-.074.021-.151.04-.23.06a1.222,1.222,0,0,1-.22.04c-.074.007-.146.017-.22.031a.759.759,0,0,0-.08,0,.854.854,0,0,1-.091.006.265.265,0,0,1-.089,0,.348.348,0,0,0-.1.006.867.867,0,0,1-.259,0h-.091a.387.387,0,0,1-.08-.01.649.649,0,0,0-.165-.021.535.535,0,0,1-.155-.02.111.111,0,0,0-.05-.01.123.123,0,0,1-.05-.01c-.067-.014-.131-.029-.2-.046a1.252,1.252,0,0,1-.184-.064,2.8,2.8,0,0,1-.681-.4,1.424,1.424,0,0,1-.439-.656.1.1,0,0,1-.021-.06.111.111,0,0,0-.01-.05.22.22,0,0,1,.025-.2.264.264,0,0,1,.155-.085.964.964,0,0,1,.226-.014q.123,0,.234,0h.34a.5.5,0,0,1,.085.006.719.719,0,0,0,.085,0,.323.323,0,0,1,.2.106c.027.043.067.1.12.174a1.111,1.111,0,0,0,.089.1.106.106,0,0,0,.021.029.169.169,0,0,1,.02.031,1.422,1.422,0,0,0,.17.11,1.386,1.386,0,0,0,.2.089.623.623,0,0,0,.141.025.776.776,0,0,1,.149.025h.11a.439.439,0,0,0,.18.006,1.221,1.221,0,0,0,.17-.035.228.228,0,0,1,.085-.021.183.183,0,0,0,.075-.02,1.022,1.022,0,0,0,.35-.24,1.321,1.321,0,0,0,.229-.35.758.758,0,0,0,.031-.12q.01-.061.029-.13a1.051,1.051,0,0,0,.025-.2c0-.07.006-.141.006-.215a.759.759,0,0,1,0-.08.148.148,0,0,0,0-.071.18.18,0,0,1-.015-.089.142.142,0,0,0-.015-.081.065.065,0,0,0-.025-.029.287.287,0,0,1-.035-.031.181.181,0,0,0-.145.04c-.036.033-.071.064-.1.091q-.09.069-.18.13a1.423,1.423,0,0,1-.2.11,1.4,1.4,0,0,1-.22.08c-.074.02-.149.04-.23.06-.039.007-.078.011-.114.015a.753.753,0,0,0-.1.015,1.05,1.05,0,0,1-.16.01,1.037,1.037,0,0,1-.16-.01h-.08a.2.2,0,0,0-.066-.011.3.3,0,0,1-.075-.01l-.269-.054a1.049,1.049,0,0,1-.24-.075,1.749,1.749,0,0,1-.695-.474,2.7,2.7,0,0,1-.445-.735.9.9,0,0,1-.07-.23,1.676,1.676,0,0,0-.06-.24.257.257,0,0,0-.011-.081.749.749,0,0,1-.02-.174.758.758,0,0,0-.02-.174.47.47,0,0,1-.01-.1v-.095a.6.6,0,0,1-.011-.124.624.624,0,0,1,.011-.126v-.1a.266.266,0,0,0,0-.081.136.136,0,0,1,.015-.08c.013-.067.024-.131.029-.2s.017-.128.031-.2c.04-.133.081-.259.124-.379a1.875,1.875,0,0,1,.166-.34,1.107,1.107,0,0,1,.114-.184c.043-.057.088-.116.135-.176a.453.453,0,0,1,.085-.1c.036-.032.071-.063.1-.089l.06-.06q.05-.04.1-.075c.033-.024.067-.045.1-.064a1.977,1.977,0,0,1,.269-.141,3.049,3.049,0,0,1,.31-.11.607.607,0,0,1,.166-.035.809.809,0,0,0,.165-.025.358.358,0,0,1,.11,0c.046.007.077,0,.089-.01a2,2,0,0,1,.575.06,1.625,1.625,0,0,1,.455.2.445.445,0,0,1,.06.045l.071.054c.039.033.077.067.11.1a.507.507,0,0,0,.12.089.278.278,0,0,0,.054.021.052.052,0,0,0,.054-.01.091.091,0,0,0,.06-.071.574.574,0,0,1,.031-.1,1.049,1.049,0,0,0,.035-.106.217.217,0,0,1,.054-.095.3.3,0,0,1,.145-.045q.086,0,.176,0h.509c.074,0,.138,0,.2,0A.248.248,0,0,1,215.374,198.656ZM214,201.744a1.153,1.153,0,0,0,.07-.229,1.963,1.963,0,0,0,.04-.3,2.779,2.779,0,0,0,0-.3,1.2,1.2,0,0,0-.035-.271.105.105,0,0,1-.014-.066.156.156,0,0,0-.006-.064c-.014-.047-.027-.093-.04-.141a.755.755,0,0,0-.049-.13,1.207,1.207,0,0,0-.4-.54,1.279,1.279,0,0,0-.76-.19.061.061,0,0,1-.054.015.145.145,0,0,0-.066,0c-.046.014-.089.025-.13.035s-.08.022-.12.036a.852.852,0,0,0-.4.329,2.2,2.2,0,0,0-.23.49.247.247,0,0,0-.02.081.548.548,0,0,1-.01.08,1.536,1.536,0,0,0-.04.319,1.3,1.3,0,0,0,.02.34v.1a1.319,1.319,0,0,1,.031.155q.01.075.029.155a2,2,0,0,0,.22.455.946.946,0,0,0,.36.315,1.631,1.631,0,0,0,.28.1.465.465,0,0,1,.11.01l.06,0a.1.1,0,0,0,.06,0h.1c.06-.014.117-.024.17-.031a.446.446,0,0,0,.16-.05,1.015,1.015,0,0,0,.4-.279A1.519,1.519,0,0,0,214,201.744Z" fill="#fff"/><ellipse cx="44.5" cy="101.252" rx="43.5" ry="18.25" fill="#cadbe1"/><path d="M44.5,83C68.524,83,88,91.173,88,101.252S68.524,119.5,44.5,119.5,1,111.331,1,101.252,20.476,83,44.5,83m0-1C19.547,82,0,90.458,0,101.252S19.547,120.5,44.5,120.5,89,112.047,89,101.252,69.453,82,44.5,82Z" fill="#66798b"/><path d="M19.989,97.538h1.043c.089,0,.175,0,.261.006a.433.433,0,0,1,.21.056.124.124,0,0,1,.046.067.665.665,0,0,1,.026.1v.051a.362.362,0,0,1,.011.092v.5c0,.048,0,.093,0,.138a.335.335,0,0,1-.016.128.223.223,0,0,1-.2.184c-.1.006-.225.01-.369.01H19.958a3.333,3.333,0,0,0-.352.016.229.229,0,0,0-.2.189.2.2,0,0,0,0,.092.152.152,0,0,1-.01.092.573.573,0,0,0,0,.138c0,.051,0,.1,0,.138v4.815a2.112,2.112,0,0,1-.016.281.205.205,0,0,1-.128.169.6.6,0,0,1-.163.021H18.22a1.924,1.924,0,0,1-.21-.011.212.212,0,0,1-.148-.071.387.387,0,0,1-.051-.21V99.532c0-.048,0-.1,0-.148a.368.368,0,0,0-.016-.138.221.221,0,0,1,0-.092.114.114,0,0,0-.01-.082.233.233,0,0,0-.21-.189c-.106-.011-.23-.016-.373-.016h-.951c-.076,0-.159,0-.251,0a.813.813,0,0,1-.22-.015.245.245,0,0,1-.123-.092.292.292,0,0,1-.036-.133c0-.054,0-.108,0-.163v-.5a1.632,1.632,0,0,1,.015-.235.209.209,0,0,1,.1-.153.416.416,0,0,1,.113-.041h4.141Z" fill="#fff"/><path d="M26.576,104.419a2.006,2.006,0,0,1,.026.225.145.145,0,0,1-.108.153.309.309,0,0,1-.143.031h-.716c-.061,0-.121,0-.178,0a.236.236,0,0,1-.138-.046.253.253,0,0,1-.107-.118.37.37,0,0,0-.1-.128.194.194,0,0,0-.051-.036.132.132,0,0,0-.082,0,.505.505,0,0,0-.1.051.571.571,0,0,1-.1.051.632.632,0,0,1-.113.072l-.123.061a1.6,1.6,0,0,1-.276.1c-.1.024-.195.049-.3.076a.714.714,0,0,1-.138.026c-.045,0-.091.009-.138.016a.356.356,0,0,0-.061,0,.356.356,0,0,1-.061,0h-.113a.517.517,0,0,1-.2,0h-.092a.391.391,0,0,0-.138-.015.333.333,0,0,1-.128-.016c-.068-.014-.133-.026-.195-.036a.6.6,0,0,1-.173-.056,1.681,1.681,0,0,1-.506-.292,1.229,1.229,0,0,1-.332-.475,1.6,1.6,0,0,1-.056-.153c-.017-.055-.032-.113-.046-.174a.2.2,0,0,1-.016-.1.355.355,0,0,0,0-.1.544.544,0,0,1-.015-.128.505.505,0,0,1,0-.138.915.915,0,0,0,.02-.174c.021-.075.041-.152.061-.23a.911.911,0,0,1,.082-.21,1.371,1.371,0,0,1,.4-.449,2.222,2.222,0,0,1,.573-.266,1.246,1.246,0,0,1,.276-.071q.143-.02.287-.051a.938.938,0,0,1,.173-.026,1.165,1.165,0,0,0,.184-.026.41.41,0,0,1,.143-.015.488.488,0,0,0,.153-.016.523.523,0,0,1,.143-.02.645.645,0,0,0,.153-.021c.143-.034.274-.063.394-.087a.621.621,0,0,0,.322-.179.451.451,0,0,0,.123-.2.087.087,0,0,0,0-.051.061.061,0,0,1,.006-.041.147.147,0,0,0,.01-.061V101a.653.653,0,0,1-.016-.081.376.376,0,0,0-.015-.072.645.645,0,0,0-.429-.419,1.094,1.094,0,0,0-.22-.046,1.669,1.669,0,0,0-.261-.01,1.934,1.934,0,0,0-.255.026,1.471,1.471,0,0,0-.215.051.525.525,0,0,0-.118.056,1.175,1.175,0,0,0-.108.077.679.679,0,0,0-.107.112.445.445,0,0,0-.077.133c-.034.068-.063.133-.087.194a.2.2,0,0,1-.148.123.712.712,0,0,1-.173.021h-.573a.967.967,0,0,0-.1,0,.274.274,0,0,1-.092,0h-.092a.112.112,0,0,0-.051-.011.069.069,0,0,1-.051-.02A.165.165,0,0,1,21.77,101a.272.272,0,0,1,0-.1c.007-.034.014-.065.021-.092q.031-.112.066-.21a.992.992,0,0,1,.087-.179c.021-.034.041-.068.061-.1l.061-.1a1.223,1.223,0,0,1,.2-.215.275.275,0,0,0,.061-.051l.092-.072c.027-.02.058-.041.092-.061a1.689,1.689,0,0,1,.368-.179c.13-.044.262-.086.4-.128a1.626,1.626,0,0,1,.256-.041,1.8,1.8,0,0,0,.265-.041.375.375,0,0,1,.128,0c.058.006.093,0,.107-.011a6.246,6.246,0,0,1,.8.031,3,3,0,0,1,.7.153,1.729,1.729,0,0,1,.536.3,1.228,1.228,0,0,1,.348.486,1.21,1.21,0,0,1,.083.4q.009.226.009.46v2.674a1.432,1.432,0,0,0,.043.363.248.248,0,0,1,.009.066A.2.2,0,0,0,26.576,104.419Zm-1.5-1.575a.7.7,0,0,0,0-.235.361.361,0,0,1-.021-.113.1.1,0,0,0-.041-.081.244.244,0,0,0-.153-.041c-.027.007-.051.012-.071.016l-.072.015a.9.9,0,0,1-.153.031,1.46,1.46,0,0,0-.163.031.3.3,0,0,1-.092.011,1.819,1.819,0,0,1-.266.041,1.081,1.081,0,0,0-.255.051l-.153.036a.8.8,0,0,0-.143.046.921.921,0,0,0-.363.277.656.656,0,0,0-.108.511.546.546,0,0,0,.113.287.49.49,0,0,0,.215.179,1.3,1.3,0,0,0,.312.1,1.376,1.376,0,0,0,.358.015,1.6,1.6,0,0,0,.353-.066.878.878,0,0,0,.419-.26,1.23,1.23,0,0,0,.235-.445.725.725,0,0,0,.026-.148.914.914,0,0,1,.026-.158Z" fill="#fff"/><path d="M32.928,102.139a.4.4,0,0,1,0,.184.187.187,0,0,1-.071.133.317.317,0,0,1-.148.056,2.018,2.018,0,0,1-.214.021q-.118,0-.235,0c-.078,0-.148-.006-.21-.006H29.417a.309.309,0,0,0-.117.021.213.213,0,0,0-.1.082.219.219,0,0,0-.041.076.2.2,0,0,0-.01.108.46.46,0,0,1,.026.118.473.473,0,0,0,.026.118,1.43,1.43,0,0,0,.2.4,1.1,1.1,0,0,0,.321.281.473.473,0,0,0,.17.066,1.318,1.318,0,0,1,.178.046,1.421,1.421,0,0,0,.225.031.918.918,0,0,0,.245-.011h.091c.068-.014.131-.029.19-.046s.114-.036.168-.056.145-.078.231-.133a.714.714,0,0,0,.188-.164c.034-.047.07-.093.107-.138a.335.335,0,0,1,.138-.1.541.541,0,0,1,.261-.046c.106,0,.2,0,.291,0,.041,0,.084,0,.128,0a.257.257,0,0,1,.117.016h.1a.375.375,0,0,1,.143.051.106.106,0,0,1,.047.092.3.3,0,0,1-.016.123,1.755,1.755,0,0,1-.113.256,2.179,2.179,0,0,1-.143.225,2.079,2.079,0,0,1-.512.542,2.69,2.69,0,0,1-.715.347.933.933,0,0,1-.225.051,1.537,1.537,0,0,0-.235.041.249.249,0,0,1-.087.006.235.235,0,0,0-.087,0H30.5a.257.257,0,0,1-.117.015,1.159,1.159,0,0,1-.118-.015.476.476,0,0,0-.143,0,.307.307,0,0,1-.133-.011.3.3,0,0,0-.113-.02.3.3,0,0,1-.113-.021c-.074-.014-.15-.029-.225-.046a.775.775,0,0,1-.2-.077l-.21-.077a.938.938,0,0,1-.178-.086,2.962,2.962,0,0,1-.583-.476,2.33,2.33,0,0,1-.419-.629,1.354,1.354,0,0,1-.081-.23,1.949,1.949,0,0,0-.081-.24.305.305,0,0,1-.011-.077.3.3,0,0,0-.01-.076,1.107,1.107,0,0,1-.051-.266c-.006-.1-.013-.19-.02-.286a1.073,1.073,0,0,0-.006-.113.413.413,0,0,1,.006-.113v-.123l.031-.245c.027-.116.05-.228.071-.337a1.487,1.487,0,0,1,.091-.307,2.678,2.678,0,0,1,1.493-1.5,1.283,1.283,0,0,1,.291-.087q.148-.026.312-.066a1.179,1.179,0,0,1,.153-.011,1.193,1.193,0,0,0,.154-.01,2.618,2.618,0,0,1,.894.118,2.713,2.713,0,0,1,.669.332,2.2,2.2,0,0,1,.184.138,1.45,1.45,0,0,1,.164.158.242.242,0,0,0,.081.082c.056.075.107.152.154.23s.1.158.154.24a1.36,1.36,0,0,1,.086.189q.036.1.077.21a1.932,1.932,0,0,1,.083.276c.02.1.044.19.071.286a.6.6,0,0,1,.014.179.652.652,0,0,0,.016.179Zm-1.533-.6a.259.259,0,0,0,.016-.25c-.039-.1-.067-.173-.087-.22a1.071,1.071,0,0,0-.378-.424,1.294,1.294,0,0,0-.655-.158.087.087,0,0,1-.071.011.121.121,0,0,0-.071,0,.382.382,0,0,1-.113.025.4.4,0,0,0-.113.026,1.088,1.088,0,0,0-.71.67.578.578,0,0,0-.036.133.319.319,0,0,0,0,.128.184.184,0,0,0,.067.1.416.416,0,0,0,.224.051h1.412c.094,0,.2,0,.3,0A.241.241,0,0,0,31.4,101.536Z" fill="#fff"/><path d="M34.44,97.538h.746a1.782,1.782,0,0,1,.2.011.232.232,0,0,1,.144.061.421.421,0,0,1,.076.3c0,.136,0,.262,0,.378v2.351a1.491,1.491,0,0,1-.01.153.364.364,0,0,0,.01.153v.092a.647.647,0,0,1,.03.108.113.113,0,0,0,.144.082.183.183,0,0,0,.071-.036.887.887,0,0,0,.178-.163c.051-.061.1-.119.158-.174s.113-.111.174-.168a1.288,1.288,0,0,0,.164-.189.574.574,0,0,0,.071-.061c.034-.034.068-.07.1-.108s.067-.073.1-.108l.235-.235a.184.184,0,0,1,.057-.066.309.309,0,0,0,.066-.067,1.152,1.152,0,0,1,.18-.179.578.578,0,0,1,.24-.107.825.825,0,0,1,.144-.01.224.224,0,0,1,.081-.006.7.7,0,0,0,.091.006h.338c.054,0,.121,0,.2-.011a.63.63,0,0,1,.2.011h.111a.36.36,0,0,0,.1.025.083.083,0,0,1,.071.046.093.093,0,0,1,.006.082.177.177,0,0,1-.036.071.712.712,0,0,1-.154.179c-.061.051-.118.1-.174.158s-.093.1-.137.143a1.2,1.2,0,0,1-.148.133.478.478,0,0,0-.087.087.528.528,0,0,1-.087.087.346.346,0,0,0-.093.082.557.557,0,0,1-.091.092l-.389.388c-.047.041-.09.081-.127.118a.741.741,0,0,0-.108.138.5.5,0,0,0-.04.076.115.115,0,0,0,0,.1.393.393,0,0,0,.077.185,1.816,1.816,0,0,1,.107.153c.054.075.1.15.148.225a2.538,2.538,0,0,0,.148.225l1.073,1.626c.068.1.136.19.2.286s.124.191.18.287a.291.291,0,0,1,.036.123.124.124,0,0,1-.047.112.172.172,0,0,1-.081.021.245.245,0,0,0-.091.021.281.281,0,0,1-.093,0,.99.99,0,0,0-.1,0h-.4c-.11,0-.24,0-.389,0a.8.8,0,0,1-.337-.046.439.439,0,0,1-.194-.189c-.056-.092-.106-.175-.154-.25l-.348-.557q-.173-.281-.347-.558-.083-.133-.158-.265a2.567,2.567,0,0,0-.17-.256.529.529,0,0,0-.071-.082.1.1,0,0,0-.113-.031.306.306,0,0,0-.137.061q-.047.042-.1.092a1.029,1.029,0,0,0-.153.143.589.589,0,0,0-.113.195.7.7,0,0,0-.02.178v.823c0,.048,0,.1,0,.159s.006.118.006.179a1.506,1.506,0,0,1-.01.168.258.258,0,0,1-.041.118.223.223,0,0,1-.127.087.863.863,0,0,1-.2.031q-.113.005-.235,0c-.081,0-.154,0-.215,0s-.157,0-.245,0a.549.549,0,0,1-.214-.026.205.205,0,0,1-.144-.184c-.006-.088-.01-.191-.01-.307V98.08c0-.075,0-.153,0-.235a.356.356,0,0,1,.036-.195.227.227,0,0,1,.143-.1.217.217,0,0,0,.046,0A.234.234,0,0,1,34.44,97.538Z" fill="#fff"/><path d="M40.059,99.542h.757c.074,0,.147,0,.214,0a.326.326,0,0,1,.164.046.292.292,0,0,1,.1.107.641.641,0,0,1,.057.154c.013.058.027.116.04.173s.027.111.041.158a7.626,7.626,0,0,1,.21.737q.086.378.2.746a1.1,1.1,0,0,1,.03.118.8.8,0,0,0,.031.118c.033.1.063.206.087.312s.053.21.086.312c.014.048.031.1.051.164a.158.158,0,0,0,.113.112c.034.007.061-.011.083-.056a.9.9,0,0,1,.05-.1,1.7,1.7,0,0,0,.077-.3,1.709,1.709,0,0,1,.077-.3c.02-.061.037-.124.051-.189s.027-.128.04-.189q.073-.246.128-.5t.128-.5c.02-.075.037-.147.05-.215s.031-.137.051-.2c.027-.1.054-.225.083-.368a.453.453,0,0,1,.153-.3.375.375,0,0,1,.164-.046c.061,0,.13,0,.2,0h.532a2.192,2.192,0,0,1,.225.011.346.346,0,0,1,.173.061.218.218,0,0,1,.073.107c.013.044.027.087.04.128.027.1.05.19.067.282a1.82,1.82,0,0,0,.077.281q.122.4.21.818c.057.28.124.552.2.818a2.084,2.084,0,0,1,.067.25,1.52,1.52,0,0,0,.067.24,1.019,1.019,0,0,0,.081.215.066.066,0,0,0,.026.015.05.05,0,0,1,.026.026.13.13,0,0,0,.117-.066c.017-.037.036-.08.057-.128a2.782,2.782,0,0,0,.1-.343c.027-.119.058-.236.093-.352.02-.068.037-.135.051-.2s.03-.131.05-.2a5.349,5.349,0,0,0,.185-.644,6.309,6.309,0,0,1,.173-.634,2.519,2.519,0,0,0,.093-.342.447.447,0,0,1,.133-.271.335.335,0,0,1,.164-.061,1.764,1.764,0,0,1,.2-.011h.716a.484.484,0,0,1,.153.021.159.159,0,0,1,.113.133.451.451,0,0,1-.03.2c-.048.157-.094.309-.138.455s-.094.3-.148.455q-.246.747-.475,1.5t-.476,1.5c-.034.109-.066.217-.1.322s-.063.213-.1.322q-.041.112-.077.2a.232.232,0,0,1-.137.128.526.526,0,0,1-.267.041c-.108-.007-.208-.011-.3-.011-.108,0-.245,0-.408,0a.8.8,0,0,1-.348-.046.346.346,0,0,1-.093-.118.8.8,0,0,1-.05-.148,1.8,1.8,0,0,1-.077-.281c-.017-.092-.04-.185-.067-.281-.02-.061-.037-.125-.051-.189a1.157,1.157,0,0,0-.061-.2q-.092-.3-.158-.613a5.556,5.556,0,0,0-.168-.624,3.114,3.114,0,0,1-.1-.388.625.625,0,0,0-.163-.327.119.119,0,0,0-.128.076c-.017.051-.036.1-.056.159a2.546,2.546,0,0,0-.108.409,2.4,2.4,0,0,1-.107.409,7.719,7.719,0,0,0-.188.752c-.051.256-.116.506-.19.752-.014.048-.027.1-.041.163s-.027.12-.04.174a.755.755,0,0,1-.057.153.332.332,0,0,1-.087.113.247.247,0,0,1-.143.046c-.061,0-.13,0-.2,0h-.839l-.113-.02a.382.382,0,0,1-.093-.031.279.279,0,0,1-.1-.143c-.021-.061-.041-.123-.061-.184-.034-.1-.068-.208-.1-.317l-.1-.327q-.255-.756-.485-1.513t-.475-1.513c-.048-.136-.093-.269-.134-.4s-.081-.259-.123-.389c-.013-.041-.029-.1-.046-.168a.212.212,0,0,1,.016-.169.311.311,0,0,1,.133-.081A.2.2,0,0,0,40.059,99.542Z" fill="#fff"/><path d="M53.948,101.975a.768.768,0,0,1,0,.348v.1a.532.532,0,0,0-.016.163.534.534,0,0,1-.016.164,1.143,1.143,0,0,0-.03.133c-.007.041-.014.086-.021.133-.027.075-.05.151-.071.23a1.073,1.073,0,0,1-.081.22,2.245,2.245,0,0,1-.562.8,3.025,3.025,0,0,1-.839.511,1.308,1.308,0,0,1-.251.077c-.086.017-.171.036-.261.056a.294.294,0,0,1-.111.02.55.55,0,0,0-.113.011.451.451,0,0,0-.067,0,.446.446,0,0,1-.066,0,1.32,1.32,0,0,1-.164.016.518.518,0,0,1-.174-.016H51a.355.355,0,0,0-.107,0,.228.228,0,0,1-.107-.016.336.336,0,0,0-.077-.01.485.485,0,0,1-.087-.01c-.068-.021-.136-.038-.2-.051a.918.918,0,0,1-.194-.061c-.083-.027-.158-.054-.231-.082a1.864,1.864,0,0,1-.22-.1,2.647,2.647,0,0,1-.613-.5,2.542,2.542,0,0,1-.429-.685.8.8,0,0,1-.077-.194c-.017-.068-.036-.14-.056-.215a.239.239,0,0,1-.02-.092.243.243,0,0,0-.021-.093.73.73,0,0,1-.02-.168.74.74,0,0,0-.02-.169.449.449,0,0,1-.011-.092v-.092a.5.5,0,0,1-.014-.173.625.625,0,0,1,.026-.174v-.071a.447.447,0,0,0,0-.108.227.227,0,0,1,.016-.107.478.478,0,0,0,.01-.1.277.277,0,0,1,.02-.1c.027-.088.051-.175.073-.26a1.585,1.585,0,0,1,.081-.251,2.589,2.589,0,0,1,.439-.7,3.112,3.112,0,0,1,.623-.516A2.273,2.273,0,0,1,50,99.664c.074-.027.15-.058.225-.092A1.28,1.28,0,0,1,50.5,99.5a2.588,2.588,0,0,0,.3-.061,1.316,1.316,0,0,1,.154-.01.975.975,0,0,0,.143-.011,3.347,3.347,0,0,1,1.027.123,2.76,2.76,0,0,1,.772.368c.076.055.153.115.231.179a1.2,1.2,0,0,1,.2.21c.054.068.1.136.147.2s.091.14.138.215a.987.987,0,0,1,.113.24c.027.085.058.175.093.271a1.229,1.229,0,0,1,.05.173c.014.061.027.123.041.184a.327.327,0,0,1,.01.082.4.4,0,0,0,.01.082.211.211,0,0,1,.011.113A.2.2,0,0,0,53.948,101.975Zm-1.432.368a1.1,1.1,0,0,0,0-.3v-.082a.317.317,0,0,1-.02-.113.667.667,0,0,0-.01-.112.16.16,0,0,0-.01-.061c-.014-.055-.026-.111-.037-.169a.871.871,0,0,0-.046-.169,1.85,1.85,0,0,0-.265-.455,1.072,1.072,0,0,0-.409-.3c-.041-.014-.081-.026-.123-.036s-.086-.022-.133-.036a.579.579,0,0,0-.174-.015c-.061,0-.123,0-.184,0a.1.1,0,0,1-.071.015.163.163,0,0,0-.071.006c-.048.014-.094.025-.138.036a.393.393,0,0,0-.117.046,1.029,1.029,0,0,0-.415.322,1.679,1.679,0,0,0-.25.486,1.272,1.272,0,0,0-.047.215c-.01.075-.021.15-.036.225a.5.5,0,0,0-.01.1v.1a.736.736,0,0,0-.016.215,1.074,1.074,0,0,0,.026.215v.092a1.409,1.409,0,0,1,.031.158,1.337,1.337,0,0,0,.03.158,2.389,2.389,0,0,0,.22.5,1.072,1.072,0,0,0,.374.342.616.616,0,0,0,.158.082,1.673,1.673,0,0,0,.18.051.168.168,0,0,0,.071.006.168.168,0,0,1,.071,0,.613.613,0,0,0,.087.015.235.235,0,0,0,.087,0h.081a1.414,1.414,0,0,1,.164-.031.56.56,0,0,0,.153-.041,1.134,1.134,0,0,0,.429-.276,1.5,1.5,0,0,0,.277-.429,1.261,1.261,0,0,0,.061-.2c.013-.068.03-.14.051-.215a.381.381,0,0,0,.01-.077.3.3,0,0,1,.01-.076v-.1A.478.478,0,0,1,52.516,102.343Z" fill="#fff"/><path d="M58.186,99.419a2.21,2.21,0,0,1,1.023.174,1.5,1.5,0,0,1,.645.573,1.105,1.105,0,0,1,.113.24c.027.085.054.172.081.26a1.127,1.127,0,0,1,.026.153.631.631,0,0,0,.026.143.21.21,0,0,0,.01.082,2.217,2.217,0,0,1,.02.3V104.2c0,.129,0,.254,0,.373a.225.225,0,0,1-.148.23.439.439,0,0,1-.144.021h-.715a1.376,1.376,0,0,1-.221-.016.208.208,0,0,1-.147-.086.31.31,0,0,1-.047-.159c0-.064,0-.134,0-.209v-2.239c0-.252-.01-.486-.031-.7a1.137,1.137,0,0,0-.184-.547.751.751,0,0,0-.419-.286.288.288,0,0,0-.107-.021.368.368,0,0,1-.117-.021.514.514,0,0,0-.128,0,.673.673,0,0,0-.117.016.332.332,0,0,1-.073.01.212.212,0,0,0-.061.01,1.15,1.15,0,0,0-.378.164.957.957,0,0,0-.388.685,7.473,7.473,0,0,0-.061,1.012v2.086a.328.328,0,0,1-.031.153.215.215,0,0,1-.163.133,1.532,1.532,0,0,1-.277.021h-.511c-.076,0-.151,0-.225-.01a.23.23,0,0,1-.164-.072.4.4,0,0,1-.066-.265q0-.174,0-.327V99.992c0-.075,0-.143.006-.2a.251.251,0,0,1,.056-.153.125.125,0,0,1,.067-.046.739.739,0,0,1,.1-.026h.051a.579.579,0,0,1,.107-.01h.536c.056,0,.108,0,.158,0a.556.556,0,0,1,.138.026.167.167,0,0,1,.1.092,1.079,1.079,0,0,1,.047.143.182.182,0,0,1,0,.072.084.084,0,0,0,.016.061.142.142,0,0,0,.036.061l.046.031a.2.2,0,0,0,.184-.077A.669.669,0,0,1,57,99.828a2.406,2.406,0,0,1,.613-.327.853.853,0,0,1,.188-.041c.066-.007.136-.017.21-.031a.253.253,0,0,1,.093-.006A.169.169,0,0,0,58.186,99.419Z" fill="#fff"/><path d="M66.7,104.245v.281a.363.363,0,0,1-.061.22.245.245,0,0,1-.133.066.978.978,0,0,1-.184.016h-.563c-.068,0-.131,0-.188,0a.236.236,0,0,1-.138-.046.178.178,0,0,1-.081-.133.762.762,0,0,0-.041-.163l-.036-.036-.036-.036a.224.224,0,0,0-.164.051l-.1.1a1.44,1.44,0,0,1-.133.087c-.041.024-.086.053-.133.087-.027.014-.056.027-.087.041s-.063.028-.1.041c-.1.034-.2.064-.307.092a.256.256,0,0,1-.093.02.318.318,0,0,0-.081.011.609.609,0,0,0-.087,0,.609.609,0,0,1-.087,0h-.091a.566.566,0,0,1-.184.016.588.588,0,0,1-.174-.026.343.343,0,0,0-.128-.016.282.282,0,0,1-.117-.015c-.083-.028-.163-.053-.241-.077a1.827,1.827,0,0,1-.23-.087,1.767,1.767,0,0,1-.639-.475,2.848,2.848,0,0,1-.445-.68,1.508,1.508,0,0,1-.081-.22c-.02-.071-.044-.145-.071-.22a.3.3,0,0,1-.01-.077.23.23,0,0,0-.021-.086c-.013-.055-.026-.114-.036-.179s-.021-.131-.036-.2a.164.164,0,0,1-.006-.071.149.149,0,0,0,0-.072v-.1a.6.6,0,0,0-.01-.1.584.584,0,0,1-.01-.118.439.439,0,0,1,.01-.107.606.606,0,0,0,.01-.1v-.1a.281.281,0,0,0,0-.1.218.218,0,0,1,.016-.1c.014-.075.026-.147.036-.215a1.324,1.324,0,0,1,.047-.2c.027-.082.05-.16.071-.235a1.421,1.421,0,0,1,.081-.225,3.07,3.07,0,0,1,.358-.583.219.219,0,0,1,.056-.056.226.226,0,0,0,.057-.056,1.064,1.064,0,0,1,.081-.092,1.218,1.218,0,0,1,.093-.082.225.225,0,0,0,.071-.056.217.217,0,0,1,.071-.056,2.389,2.389,0,0,1,.593-.287,1.071,1.071,0,0,1,.148-.031,1.259,1.259,0,0,0,.158-.031.825.825,0,0,1,.184-.026c.074,0,.15,0,.225,0s.147,0,.22.011a.973.973,0,0,1,.178.031c.1.034.2.065.3.092a1.159,1.159,0,0,1,.265.112c.048.034.093.067.133.1l.134.1c.027.02.066.048.117.081a.12.12,0,0,0,.148,0,.073.073,0,0,0,.041-.071.26.26,0,0,1,.02-.1v-.1a.215.215,0,0,0,.01-.071V98.121c0-.075,0-.159,0-.251a.331.331,0,0,1,.046-.21.2.2,0,0,1,.153-.1.06.06,0,0,1,.041,0,.06.06,0,0,0,.041,0h.726c.081,0,.157,0,.224.01a.2.2,0,0,1,.154.082.387.387,0,0,1,.051.21v6.395Zm-1.391-2a.221.221,0,0,0,0-.087c0-.031,0-.059,0-.087,0-.068,0-.136-.01-.2a1.23,1.23,0,0,0-.031-.184c-.013-.076-.026-.143-.036-.2a.613.613,0,0,0-.056-.174,1.346,1.346,0,0,0-.415-.583,1.231,1.231,0,0,0-.782-.215.893.893,0,0,0-.164.021l-.148.036a.587.587,0,0,0-.127.046.9.9,0,0,0-.429.348,2.1,2.1,0,0,0-.245.531,1.042,1.042,0,0,0-.041.2,1.26,1.26,0,0,1-.041.215v.143a.951.951,0,0,0-.01.25,1.157,1.157,0,0,0,.031.23.335.335,0,0,0,0,.056.191.191,0,0,1,.006.046c.013.054.026.106.036.153s.021.1.036.153a1.384,1.384,0,0,0,.593.787,1.024,1.024,0,0,0,.368.143.522.522,0,0,0,.123.011.432.432,0,0,0,.1.015.331.331,0,0,0,.107,0,1.472,1.472,0,0,1,.164-.031.745.745,0,0,0,.164-.041,1.143,1.143,0,0,0,.408-.287,1.6,1.6,0,0,0,.267-.439.991.991,0,0,0,.061-.189c.013-.065.027-.135.04-.21a.324.324,0,0,0,.006-.1.2.2,0,0,1,.016-.1.261.261,0,0,0,.01-.071v-.184Z" fill="#fff"/><path d="M73.357,101.975a.768.768,0,0,1,0,.348v.1a.532.532,0,0,0-.016.163.534.534,0,0,1-.016.164,1.143,1.143,0,0,0-.03.133c-.007.041-.014.086-.021.133-.027.075-.05.151-.071.23a1.073,1.073,0,0,1-.081.22,2.245,2.245,0,0,1-.562.8,3.025,3.025,0,0,1-.839.511,1.308,1.308,0,0,1-.251.077c-.086.017-.171.036-.261.056a.294.294,0,0,1-.111.02.55.55,0,0,0-.113.011.451.451,0,0,0-.067,0,.446.446,0,0,1-.066,0,1.32,1.32,0,0,1-.164.016.518.518,0,0,1-.174-.016h-.1a.355.355,0,0,0-.107,0,.228.228,0,0,1-.107-.016.336.336,0,0,0-.077-.01.485.485,0,0,1-.087-.01c-.068-.021-.136-.038-.2-.051a.918.918,0,0,1-.194-.061c-.083-.027-.158-.054-.231-.082a1.864,1.864,0,0,1-.22-.1,2.647,2.647,0,0,1-.613-.5,2.542,2.542,0,0,1-.429-.685.8.8,0,0,1-.077-.194c-.017-.068-.036-.14-.056-.215a.239.239,0,0,1-.02-.092.243.243,0,0,0-.021-.093.73.73,0,0,1-.02-.168.74.74,0,0,0-.02-.169.449.449,0,0,1-.011-.092v-.092a.5.5,0,0,1-.014-.173.625.625,0,0,1,.026-.174v-.071a.447.447,0,0,0,0-.108.227.227,0,0,1,.016-.107.478.478,0,0,0,.01-.1.277.277,0,0,1,.02-.1c.027-.088.051-.175.073-.26a1.585,1.585,0,0,1,.081-.251,2.589,2.589,0,0,1,.439-.7,3.112,3.112,0,0,1,.623-.516,2.273,2.273,0,0,1,.215-.092c.074-.027.15-.058.225-.092a1.28,1.28,0,0,1,.275-.071,2.588,2.588,0,0,0,.3-.061,1.316,1.316,0,0,1,.154-.01.975.975,0,0,0,.143-.011,3.347,3.347,0,0,1,1.027.123,2.76,2.76,0,0,1,.772.368c.076.055.153.115.231.179a1.2,1.2,0,0,1,.2.21c.054.068.1.136.147.2s.091.14.138.215a.987.987,0,0,1,.113.24c.027.085.058.175.093.271a1.229,1.229,0,0,1,.05.173c.014.061.027.123.041.184a.327.327,0,0,1,.01.082.4.4,0,0,0,.01.082.211.211,0,0,1,.011.113A.2.2,0,0,0,73.357,101.975Zm-1.432.368a1.1,1.1,0,0,0,0-.3v-.082a.317.317,0,0,1-.02-.113.667.667,0,0,0-.01-.112.16.16,0,0,0-.01-.061c-.014-.055-.026-.111-.037-.169a.871.871,0,0,0-.046-.169,1.85,1.85,0,0,0-.265-.455,1.072,1.072,0,0,0-.409-.3c-.041-.014-.081-.026-.123-.036s-.086-.022-.133-.036a.579.579,0,0,0-.174-.015c-.061,0-.123,0-.184,0a.1.1,0,0,1-.071.015.163.163,0,0,0-.071.006c-.048.014-.094.025-.138.036a.393.393,0,0,0-.117.046,1.029,1.029,0,0,0-.415.322,1.679,1.679,0,0,0-.25.486,1.272,1.272,0,0,0-.047.215c-.01.075-.021.15-.036.225a.5.5,0,0,0-.01.1v.1a.736.736,0,0,0-.016.215,1.074,1.074,0,0,0,.026.215v.092a1.409,1.409,0,0,1,.031.158,1.337,1.337,0,0,0,.03.158,2.389,2.389,0,0,0,.22.5,1.072,1.072,0,0,0,.374.342.616.616,0,0,0,.158.082,1.673,1.673,0,0,0,.18.051.168.168,0,0,0,.071.006.168.168,0,0,1,.071,0,.613.613,0,0,0,.087.015.235.235,0,0,0,.087,0h.081a1.414,1.414,0,0,1,.164-.031.56.56,0,0,0,.153-.041,1.134,1.134,0,0,0,.429-.276,1.5,1.5,0,0,0,.277-.429,1.261,1.261,0,0,0,.061-.2c.013-.068.03-.14.051-.215a.381.381,0,0,0,.01-.077.3.3,0,0,1,.01-.076v-.1A.478.478,0,0,1,71.925,102.343Z" fill="#fff"/><ellipse cx="226.112" cy="101.252" rx="43.5" ry="18.25" fill="#cadbe1"/><path d="M226.112,83c24.024,0,43.5,8.171,43.5,18.25s-19.476,18.25-43.5,18.25-43.5-8.171-43.5-18.25S202.087,83,226.112,83m0-1c-24.953,0-44.5,8.456-44.5,19.25s19.547,19.25,44.5,19.25,44.5-8.456,44.5-19.25S251.065,82,226.112,82Z" fill="#66798b"/><path d="M212.64,96.087h1.286a.535.535,0,0,1,.238.045.466.466,0,0,1,.211.217,2.624,2.624,0,0,0,.165.273c.129.2.251.41.364.614s.235.41.365.614c.1.152.189.306.273.461s.175.309.273.46c.038.061.075.128.113.2a.243.243,0,0,0,.183.131.142.142,0,0,0,.137-.057c.038-.045.068-.083.09-.114.068-.106.132-.212.189-.318s.119-.213.187-.319q.238-.387.467-.779t.467-.791c.06-.1.125-.213.194-.341a.543.543,0,0,1,.262-.262.624.624,0,0,1,.324-.045c.148.007.275.011.381.011h.637c.062,0,.124,0,.189.006a.345.345,0,0,1,.152.04.13.13,0,0,1,.046.177,1.251,1.251,0,0,1-.079.176c-.09.152-.181.3-.268.449l-.267.449q-.388.614-.746,1.23t-.733,1.229c-.084.121-.16.244-.233.37s-.146.252-.222.381c-.06.083-.114.167-.165.251a1.2,1.2,0,0,0-.119.284.313.313,0,0,0,0,.108.359.359,0,0,1-.006.108.248.248,0,0,0-.011.08v1.922q0,.217,0,.467a.34.34,0,0,1-.13.33.316.316,0,0,1-.176.045h-1.006a2,2,0,0,1-.229-.011.229.229,0,0,1-.159-.079.241.241,0,0,1-.057-.16c0-.06,0-.133-.011-.216v-2.5a.371.371,0,0,0-.022-.131,1.338,1.338,0,0,0-.125-.307q-.081-.137-.171-.262-.1-.182-.2-.358c-.068-.118-.14-.237-.216-.359a1.638,1.638,0,0,1-.159-.267,1.808,1.808,0,0,0-.16-.267q-.3-.467-.568-.933t-.557-.933q-.138-.227-.262-.438c-.084-.14-.167-.287-.251-.438a1.657,1.657,0,0,1-.1-.153.183.183,0,0,1-.017-.188.131.131,0,0,1,.064-.063.542.542,0,0,1,.086-.029.067.067,0,0,1,.044-.006A.063.063,0,0,0,212.64,96.087Z" fill="#fff"/><path d="M225.869,101.036a.855.855,0,0,1,0,.387v.114a.592.592,0,0,0-.017.182.6.6,0,0,1-.017.183,1.272,1.272,0,0,0-.033.148c-.008.046-.016.1-.024.148-.03.083-.056.168-.079.256a1.194,1.194,0,0,1-.09.244,2.5,2.5,0,0,1-.625.888,3.367,3.367,0,0,1-.933.568,1.456,1.456,0,0,1-.279.086c-.1.019-.191.04-.291.063a.327.327,0,0,1-.124.022.612.612,0,0,0-.125.012.5.5,0,0,0-.075.006.5.5,0,0,1-.073.006,1.469,1.469,0,0,1-.183.017.576.576,0,0,1-.194-.017h-.114a.4.4,0,0,0-.119-.006.254.254,0,0,1-.119-.017.374.374,0,0,0-.086-.011.54.54,0,0,1-.1-.011c-.076-.023-.151-.042-.227-.057a1.022,1.022,0,0,1-.216-.068c-.092-.03-.176-.06-.257-.091a2.075,2.075,0,0,1-.244-.114,2.947,2.947,0,0,1-.683-.558,2.83,2.83,0,0,1-.478-.762.888.888,0,0,1-.086-.216c-.019-.076-.04-.156-.062-.239a.266.266,0,0,1-.022-.1.271.271,0,0,0-.024-.1.812.812,0,0,1-.022-.187.824.824,0,0,0-.022-.188.5.5,0,0,1-.013-.1v-.1a.558.558,0,0,1-.016-.193.7.7,0,0,1,.029-.194v-.079a.5.5,0,0,0,0-.12.252.252,0,0,1,.017-.119.532.532,0,0,0,.011-.109.309.309,0,0,1,.022-.108c.03-.1.057-.2.081-.29a1.764,1.764,0,0,1,.09-.279,2.881,2.881,0,0,1,.489-.779,3.464,3.464,0,0,1,.694-.575,2.53,2.53,0,0,1,.24-.1c.083-.03.167-.064.251-.1a1.425,1.425,0,0,1,.306-.079,2.88,2.88,0,0,0,.33-.068,1.465,1.465,0,0,1,.171-.011,1.085,1.085,0,0,0,.159-.012,3.725,3.725,0,0,1,1.143.137,3.072,3.072,0,0,1,.859.41c.084.061.17.128.257.2a1.333,1.333,0,0,1,.222.233c.06.076.114.152.164.228s.1.156.154.239a1.1,1.1,0,0,1,.125.267c.03.094.065.2.1.3a1.368,1.368,0,0,1,.056.193c.016.068.03.137.046.2a.364.364,0,0,1,.011.091.448.448,0,0,0,.011.091.235.235,0,0,1,.013.125A.218.218,0,0,0,225.869,101.036Zm-1.594.41a1.226,1.226,0,0,0,0-.329v-.091a.352.352,0,0,1-.022-.125.742.742,0,0,0-.011-.125.178.178,0,0,0-.011-.068c-.016-.061-.029-.124-.041-.188a.969.969,0,0,0-.051-.188,2.059,2.059,0,0,0-.3-.506,1.193,1.193,0,0,0-.456-.335c-.046-.015-.09-.029-.137-.04s-.1-.025-.148-.04a.644.644,0,0,0-.194-.017c-.068,0-.137.006-.2.006a.112.112,0,0,1-.079.017.182.182,0,0,0-.079.006c-.054.015-.1.028-.154.04a.437.437,0,0,0-.13.051,1.145,1.145,0,0,0-.462.359,1.869,1.869,0,0,0-.278.541,1.416,1.416,0,0,0-.052.239c-.011.083-.024.167-.04.25a.558.558,0,0,0-.011.114v.114a.819.819,0,0,0-.017.239,1.2,1.2,0,0,0,.029.239v.1a1.568,1.568,0,0,1,.035.176,1.488,1.488,0,0,0,.033.176,2.659,2.659,0,0,0,.244.552,1.194,1.194,0,0,0,.416.381.686.686,0,0,0,.176.091,1.862,1.862,0,0,0,.2.056.187.187,0,0,0,.079.006.187.187,0,0,1,.079.006.682.682,0,0,0,.1.017.262.262,0,0,0,.1-.006h.09a1.573,1.573,0,0,1,.183-.034.623.623,0,0,0,.17-.045,1.262,1.262,0,0,0,.478-.307,1.674,1.674,0,0,0,.308-.478,1.4,1.4,0,0,0,.068-.228c.014-.076.033-.156.057-.239a.424.424,0,0,0,.011-.086.333.333,0,0,1,.011-.085v-.108A.532.532,0,0,1,224.275,101.446Z" fill="#fff"/><path d="M232.762,98.408a.232.232,0,0,1,.086.187c0,.087,0,.176,0,.267v4.859q0,.09,0,.176c0,.056-.006.116-.006.176s-.013.116-.017.165-.01.1-.016.165c-.03.106-.056.206-.075.3a1.239,1.239,0,0,1-.086.267,2.221,2.221,0,0,1-.494.717,2.451,2.451,0,0,1-.735.466,1.661,1.661,0,0,1-.249.091c-.084.023-.171.045-.262.068a1.464,1.464,0,0,1-.251.046,2.47,2.47,0,0,0-.251.034.692.692,0,0,0-.09.006.987.987,0,0,1-.1.006.3.3,0,0,1-.1.006.4.4,0,0,0-.114.006.921.921,0,0,1-.3,0h-.1a.392.392,0,0,1-.09-.011.776.776,0,0,0-.187-.023.637.637,0,0,1-.176-.022.127.127,0,0,0-.057-.012.128.128,0,0,1-.057-.011c-.076-.015-.149-.033-.222-.052a1.428,1.428,0,0,1-.21-.074,3.16,3.16,0,0,1-.775-.46,1.618,1.618,0,0,1-.5-.745.121.121,0,0,1-.024-.068.122.122,0,0,0-.011-.057.251.251,0,0,1,.029-.222.3.3,0,0,1,.176-.1,1.1,1.1,0,0,1,.257-.017c.094,0,.183.006.267.006h.387a.678.678,0,0,1,.1.006.663.663,0,0,0,.1.006.368.368,0,0,1,.227.12c.03.049.076.116.137.2a1.171,1.171,0,0,0,.1.114.126.126,0,0,0,.024.034.212.212,0,0,1,.022.034,1.619,1.619,0,0,0,.194.125,1.578,1.578,0,0,0,.227.1.81.81,0,0,0,.16.029.883.883,0,0,1,.17.029h.125a.516.516,0,0,0,.2.006,1.19,1.19,0,0,0,.194-.04.256.256,0,0,1,.1-.023.2.2,0,0,0,.086-.023,1.163,1.163,0,0,0,.4-.273,1.478,1.478,0,0,0,.26-.4.841.841,0,0,0,.035-.137q.012-.068.033-.148a1.187,1.187,0,0,0,.029-.222c0-.079.006-.16.006-.244a.864.864,0,0,1,0-.09.165.165,0,0,0,0-.08.208.208,0,0,1-.017-.1.158.158,0,0,0-.017-.091.072.072,0,0,0-.029-.034.256.256,0,0,1-.04-.034.2.2,0,0,0-.165.046q-.062.057-.119.1-.1.08-.2.148a1.62,1.62,0,0,1-.227.125,1.678,1.678,0,0,1-.251.091L230,104c-.044.007-.089.013-.13.017a1,1,0,0,0-.119.017,1.1,1.1,0,0,1-.183.011,1.086,1.086,0,0,1-.183-.011h-.09a.23.23,0,0,0-.075-.012.344.344,0,0,1-.086-.011c-.106-.023-.208-.044-.306-.063a1.194,1.194,0,0,1-.273-.085,1.992,1.992,0,0,1-.791-.541,3.064,3.064,0,0,1-.506-.837,1,1,0,0,1-.079-.262,1.934,1.934,0,0,0-.068-.273.283.283,0,0,0-.013-.091.858.858,0,0,1-.022-.2.865.865,0,0,0-.022-.2.527.527,0,0,1-.011-.109v-.108a.8.8,0,0,1,0-.284v-.114a.3.3,0,0,0,0-.091.157.157,0,0,1,.017-.091c.014-.075.027-.149.033-.221s.019-.146.035-.222c.046-.152.092-.3.141-.433a2.1,2.1,0,0,1,.189-.387,1.3,1.3,0,0,1,.13-.21c.049-.064.1-.131.154-.2a.515.515,0,0,1,.1-.114q.062-.056.119-.1l.068-.068c.038-.03.076-.059.114-.085s.076-.052.114-.074a2.245,2.245,0,0,1,.306-.16,3.287,3.287,0,0,1,.352-.125.663.663,0,0,1,.189-.04.979.979,0,0,0,.187-.029.362.362,0,0,1,.125,0c.052.008.087,0,.1-.011a2.221,2.221,0,0,1,.654.068,1.826,1.826,0,0,1,.518.228.585.585,0,0,1,.068.051l.081.063c.044.038.087.076.125.114a.579.579,0,0,0,.137.1.277.277,0,0,0,.062.023.057.057,0,0,0,.062-.011.1.1,0,0,0,.068-.08.64.64,0,0,1,.035-.114,1.247,1.247,0,0,0,.04-.12.242.242,0,0,1,.062-.108.335.335,0,0,1,.165-.051c.065,0,.132-.006.2-.006h.579c.084,0,.157,0,.222.006A.276.276,0,0,1,232.762,98.408Zm-1.559,3.516a1.322,1.322,0,0,0,.079-.261,2.223,2.223,0,0,0,.046-.336,3.175,3.175,0,0,0,0-.347,1.361,1.361,0,0,0-.04-.307.12.12,0,0,1-.016-.075.181.181,0,0,0-.006-.074c-.016-.053-.03-.106-.046-.16a.836.836,0,0,0-.056-.148,1.374,1.374,0,0,0-.456-.614,1.456,1.456,0,0,0-.865-.216.069.069,0,0,1-.062.017.165.165,0,0,0-.075.006c-.052.015-.1.029-.148.04s-.09.025-.137.04a.976.976,0,0,0-.456.375,2.5,2.5,0,0,0-.262.557.281.281,0,0,0-.022.091.611.611,0,0,1-.011.09,1.757,1.757,0,0,0-.046.364,1.48,1.48,0,0,0,.022.387v.114a1.568,1.568,0,0,1,.035.176q.012.086.033.176a2.28,2.28,0,0,0,.251.518,1.075,1.075,0,0,0,.41.358,1.857,1.857,0,0,0,.319.114.574.574,0,0,1,.125.011.568.568,0,0,1,.068.006.12.12,0,0,0,.068-.006h.113c.068-.015.133-.026.194-.034a.541.541,0,0,0,.183-.057,1.165,1.165,0,0,0,.46-.318A1.736,1.736,0,0,0,231.2,101.924Z" fill="#fff"/><path d="M239.812,103.757a2.233,2.233,0,0,1,.029.25.162.162,0,0,1-.121.171.344.344,0,0,1-.159.034h-.8c-.068,0-.135,0-.2-.006a.262.262,0,0,1-.154-.052.281.281,0,0,1-.119-.131.43.43,0,0,0-.108-.142.236.236,0,0,0-.057-.04.151.151,0,0,0-.092-.006.642.642,0,0,0-.108.057.581.581,0,0,1-.108.056.676.676,0,0,1-.125.08l-.137.068a1.775,1.775,0,0,1-.306.108c-.106.026-.216.055-.33.085a.792.792,0,0,1-.154.029c-.049,0-.1.01-.154.017a.409.409,0,0,0-.068.006.383.383,0,0,1-.068.006h-.124a.583.583,0,0,1-.229,0h-.1a.437.437,0,0,0-.154-.017.377.377,0,0,1-.143-.017c-.075-.015-.148-.029-.216-.04a.692.692,0,0,1-.194-.063,1.863,1.863,0,0,1-.562-.325,1.359,1.359,0,0,1-.37-.529,1.59,1.59,0,0,1-.064-.171c-.019-.061-.037-.125-.051-.194a.237.237,0,0,1-.017-.114.46.46,0,0,0,0-.114.592.592,0,0,1-.017-.142.607.607,0,0,1,0-.153.974.974,0,0,0,.024-.194c.022-.083.044-.169.068-.256a.979.979,0,0,1,.09-.233,1.5,1.5,0,0,1,.445-.5,2.48,2.48,0,0,1,.637-.3,1.394,1.394,0,0,1,.308-.079c.1-.015.211-.034.318-.057a1.053,1.053,0,0,1,.194-.029,1.3,1.3,0,0,0,.2-.029.456.456,0,0,1,.159-.017.543.543,0,0,0,.171-.017.576.576,0,0,1,.159-.022.709.709,0,0,0,.171-.023c.159-.038.3-.07.438-.1a.7.7,0,0,0,.359-.2.516.516,0,0,0,.137-.228.1.1,0,0,0,0-.056.068.068,0,0,1,.006-.046.152.152,0,0,0,.011-.068v-.068a.909.909,0,0,1-.017-.09.364.364,0,0,0-.017-.08.715.715,0,0,0-.478-.466,1.205,1.205,0,0,0-.244-.052,1.83,1.83,0,0,0-.289-.011,2.177,2.177,0,0,0-.286.029,1.65,1.65,0,0,0-.238.056.625.625,0,0,0-.132.063,1.414,1.414,0,0,0-.119.086.756.756,0,0,0-.119.125.531.531,0,0,0-.086.148c-.038.075-.07.148-.1.216a.227.227,0,0,1-.165.137.8.8,0,0,1-.194.023h-.637a1.1,1.1,0,0,0-.114.006.3.3,0,0,1-.1-.006h-.1a.118.118,0,0,0-.057-.012.074.074,0,0,1-.056-.022.181.181,0,0,1-.125-.148.273.273,0,0,1,0-.114c.006-.038.014-.072.022-.1.022-.083.048-.161.075-.233a1.008,1.008,0,0,1,.1-.2c.022-.038.044-.075.068-.114s.044-.076.068-.114a1.355,1.355,0,0,1,.227-.239.326.326,0,0,0,.068-.056l.1-.08c.032-.022.065-.045.1-.068a1.88,1.88,0,0,1,.41-.2c.144-.049.292-.1.445-.142a1.8,1.8,0,0,1,.284-.045,2,2,0,0,0,.3-.045.417.417,0,0,1,.143,0c.064.007.1,0,.119-.012a6.965,6.965,0,0,1,.894.034,3.353,3.353,0,0,1,.773.171,1.943,1.943,0,0,1,.6.336,1.367,1.367,0,0,1,.387.541,1.307,1.307,0,0,1,.092.444c.006.167.011.338.011.512V103.2a1.675,1.675,0,0,0,.044.4.225.225,0,0,1,.013.074A.226.226,0,0,0,239.812,103.757ZM238.139,102a.777.777,0,0,0,0-.262.377.377,0,0,1-.022-.125.108.108,0,0,0-.046-.09.273.273,0,0,0-.171-.046c-.03.008-.056.013-.079.017l-.079.017a.99.99,0,0,1-.17.034,1.573,1.573,0,0,0-.183.034.332.332,0,0,1-.1.012,2,2,0,0,1-.3.045,1.2,1.2,0,0,0-.284.057c-.06.015-.117.029-.171.04a.877.877,0,0,0-.159.051,1.045,1.045,0,0,0-.4.308.733.733,0,0,0-.119.568.608.608,0,0,0,.125.319.543.543,0,0,0,.24.2,1.411,1.411,0,0,0,.346.108,1.534,1.534,0,0,0,.4.017,1.771,1.771,0,0,0,.392-.074.962.962,0,0,0,.467-.29,1.358,1.358,0,0,0,.262-.5.712.712,0,0,0,.029-.165.885.885,0,0,1,.029-.176Z" fill="#fff"/><path d="M136.038,80.708c-10.508,0-19.056-8.19-19.056-18.258s8.548-18.258,19.056-18.258,19.055,8.19,19.055,18.258S146.544,80.708,136.038,80.708Zm0-33.517c-8.854,0-16.056,6.845-16.056,15.258s7.2,15.258,16.056,15.258,16.055-6.845,16.055-15.258S144.89,47.192,136.038,47.192Z" fill="#fff"/><path d="M135.306,178.343c-26.985,0-54.9-6.83-54.9-18.259s27.912-18.258,54.9-18.258,54.9,6.829,54.9,18.258S162.291,178.343,135.306,178.343Zm0-33.517c-14.114,0-27.365,1.719-37.309,4.84-9.135,2.866-14.589,6.762-14.589,10.418S88.862,167.636,98,170.5c9.944,3.121,23.193,4.84,37.309,4.84s27.364-1.719,37.308-4.84c9.135-2.867,14.589-6.762,14.589-10.419s-5.454-7.552-14.589-10.418C162.67,146.545,149.42,144.826,135.306,144.826Z" fill="#fff"/><path d="M136.038,144.826a33.559,33.559,0,1,1,33.685-33.559A33.66,33.66,0,0,1,136.038,144.826Zm0-64.118a30.559,30.559,0,1,0,30.685,30.559A30.657,30.657,0,0,0,136.038,80.708Z" fill="#fff"/><ellipse cx="135.306" cy="19.25" rx="43.5" ry="18.25" fill="#cadbe1"/><path d="M135.306,1c24.024,0,43.5,8.171,43.5,18.25S159.33,37.5,135.306,37.5s-43.5-8.171-43.5-18.25S111.281,1,135.306,1m0-1c-24.953,0-44.5,8.456-44.5,19.25s19.547,19.25,44.5,19.25,44.5-8.456,44.5-19.25S160.259,0,135.306,0Z" fill="#66798b"/><path d="M105.959,15.117h1.86a.458.458,0,0,1,.289.08.3.3,0,0,1,.114.165c.022.072.046.142.068.21.046.121.089.244.132.37s.084.252.13.381q.262.716.5,1.456t.506,1.467c.06.152.113.307.159.467a4.616,4.616,0,0,0,.16.467c.014.038.03.076.044.113a.188.188,0,0,0,.079.091l.046.023a.038.038,0,0,0,.046-.012.18.18,0,0,0,.125-.136c.022-.075.044-.144.068-.2.06-.174.114-.347.163-.517s.1-.343.165-.517c.152-.463.3-.928.455-1.393s.3-.935.455-1.405c.038-.121.076-.24.114-.359s.075-.236.113-.358c.024-.061.046-.121.068-.182a.3.3,0,0,1,.125-.148.267.267,0,0,1,.176-.057h1.957a.28.28,0,0,1,.29.3v7.308c0,.083,0,.165-.006.244a.234.234,0,0,1-.073.177.281.281,0,0,1-.171.062c-.068,0-.144.006-.227.006h-.854c-.06-.015-.111-.027-.154-.034a.168.168,0,0,1-.108-.08.227.227,0,0,1-.044-.148v-3.7c-.008-.106-.011-.207-.011-.3v-.29c0-.06,0-.123,0-.187a.621.621,0,0,0-.017-.188.652.652,0,0,1-.022-.171.1.1,0,0,0-.068-.113.041.041,0,0,0-.051.011.244.244,0,0,1-.029.034.374.374,0,0,0-.075.108c-.019.042-.036.082-.051.12-.046.113-.089.231-.13.352s-.086.243-.132.364c-.016.045-.029.091-.04.136a.681.681,0,0,1-.051.136c-.038.1-.073.2-.1.3s-.063.2-.1.3a.124.124,0,0,0-.024.074.126.126,0,0,1-.022.074,1.357,1.357,0,0,0-.075.216,1.086,1.086,0,0,1-.084.228,1.357,1.357,0,0,0-.075.216,1.764,1.764,0,0,1-.073.228,7.033,7.033,0,0,0-.24.666c-.068.224-.144.445-.227.665a.121.121,0,0,0-.024.068.127.127,0,0,1-.022.068,1.54,1.54,0,0,0-.09.256,1.675,1.675,0,0,1-.092.256l-.062.148a.282.282,0,0,1-.086.113.217.217,0,0,1-.114.052.844.844,0,0,0-.136.029h-.26c-.054,0-.116,0-.189.006s-.144.006-.216.006a1.7,1.7,0,0,1-.2-.011.283.283,0,0,1-.136-.046.3.3,0,0,1-.125-.131c-.024-.049-.049-.108-.079-.176a2.14,2.14,0,0,1-.1-.278,2.459,2.459,0,0,0-.1-.278l-.035-.1a2.829,2.829,0,0,1-.1-.29,2.748,2.748,0,0,0-.1-.29c-.008-.023-.013-.044-.017-.063s-.01-.04-.016-.063a1.154,1.154,0,0,1-.092-.216c-.022-.076-.049-.152-.079-.228a.222.222,0,0,1-.017-.057.235.235,0,0,0-.016-.057,1.8,1.8,0,0,1-.075-.227,1.11,1.11,0,0,0-.086-.228c-.06-.152-.117-.311-.17-.478s-.111-.33-.171-.49c-.068-.189-.132-.382-.194-.58a4.464,4.464,0,0,0-.216-.568,1.187,1.187,0,0,0-.125-.262.4.4,0,0,0-.044-.04c-.016-.012-.035-.01-.057.006a.121.121,0,0,0-.057.113.614.614,0,0,1-.022.159.442.442,0,0,0-.017.165c0,.056.006.116.006.176v.25c0,.084,0,.167-.013.251v3.765a.245.245,0,0,1-.216.25.476.476,0,0,1-.17.017c-.062,0-.122-.006-.182-.006h-.592c-.083,0-.159,0-.227-.006a.281.281,0,0,1-.171-.062.256.256,0,0,1-.079-.177c-.008-.079-.011-.161-.011-.244V15.55a1.28,1.28,0,0,1,.011-.176.414.414,0,0,1,.035-.131.268.268,0,0,1,.181-.113.063.063,0,0,1,.046-.006A.063.063,0,0,0,105.959,15.117Z" fill="#fff"/><path d="M121.66,20.237a.445.445,0,0,1,0,.2.209.209,0,0,1-.079.148.352.352,0,0,1-.165.063,2.245,2.245,0,0,1-.238.023q-.131,0-.262,0c-.087,0-.165-.006-.233-.006h-2.929a.343.343,0,0,0-.13.023.237.237,0,0,0-.114.091.244.244,0,0,0-.046.085.226.226,0,0,0-.011.12.512.512,0,0,1,.029.131.527.527,0,0,0,.029.131,1.591,1.591,0,0,0,.222.449,1.229,1.229,0,0,0,.357.313.526.526,0,0,0,.189.074,1.466,1.466,0,0,1,.2.052,1.581,1.581,0,0,0,.251.034,1.022,1.022,0,0,0,.273-.012h.1c.076-.015.146-.032.211-.051s.127-.04.187-.063q.114-.057.257-.148a.794.794,0,0,0,.209-.182c.038-.052.078-.1.119-.153a.373.373,0,0,1,.154-.108.6.6,0,0,1,.29-.052c.117,0,.225.006.324.006.046,0,.094,0,.143-.006a.286.286,0,0,1,.13.017h.114a.417.417,0,0,1,.159.056.118.118,0,0,1,.052.1.328.328,0,0,1-.017.136,1.952,1.952,0,0,1-.125.285,2.424,2.424,0,0,1-.159.25,2.313,2.313,0,0,1-.57.6,2.992,2.992,0,0,1-.8.386,1.038,1.038,0,0,1-.251.057,1.71,1.71,0,0,0-.262.045.277.277,0,0,1-.1.006.262.262,0,0,0-.1.006h-.125a.286.286,0,0,1-.13.017,1.289,1.289,0,0,1-.132-.017.53.53,0,0,0-.159,0,.341.341,0,0,1-.148-.012.336.336,0,0,0-.125-.022.336.336,0,0,1-.125-.023c-.083-.015-.167-.033-.251-.051a.862.862,0,0,1-.227-.086l-.233-.086a1.044,1.044,0,0,1-.2-.1,3.3,3.3,0,0,1-.649-.529,2.592,2.592,0,0,1-.467-.7,1.507,1.507,0,0,1-.09-.255,2.168,2.168,0,0,0-.09-.267.34.34,0,0,1-.013-.086.333.333,0,0,0-.011-.085,1.231,1.231,0,0,1-.057-.3c-.006-.106-.014-.212-.022-.318a1.194,1.194,0,0,0-.006-.125.46.46,0,0,1,.006-.125v-.136l.035-.273c.03-.129.056-.254.079-.375a1.655,1.655,0,0,1,.1-.341,2.979,2.979,0,0,1,1.661-1.672,1.427,1.427,0,0,1,.324-.1q.164-.029.348-.074a1.312,1.312,0,0,1,.17-.012,1.327,1.327,0,0,0,.171-.011,2.913,2.913,0,0,1,.995.131,3.019,3.019,0,0,1,.744.37,2.45,2.45,0,0,1,.2.153,1.613,1.613,0,0,1,.182.176.269.269,0,0,0,.09.091c.062.083.119.169.171.256s.109.176.171.267a1.513,1.513,0,0,1,.1.21q.04.108.086.233a2.149,2.149,0,0,1,.092.307c.022.106.049.212.079.318a.673.673,0,0,1,.016.2.725.725,0,0,0,.017.2Zm-1.706-.671a.288.288,0,0,0,.017-.278c-.043-.11-.075-.192-.1-.245a1.192,1.192,0,0,0-.421-.472,1.439,1.439,0,0,0-.728-.176.1.1,0,0,1-.079.012.135.135,0,0,0-.079,0,.425.425,0,0,1-.125.028.44.44,0,0,0-.125.029,1.211,1.211,0,0,0-.79.745.643.643,0,0,0-.04.148.355.355,0,0,0,0,.142.205.205,0,0,0,.075.113.463.463,0,0,0,.249.057h1.571c.1,0,.217,0,.335-.006A.268.268,0,0,0,119.954,19.565Z" fill="#fff"/><path d="M128.672,22.58v.313a.4.4,0,0,1-.068.244.272.272,0,0,1-.148.074,1.088,1.088,0,0,1-.2.017h-.627c-.076,0-.146,0-.209-.006a.262.262,0,0,1-.154-.052.2.2,0,0,1-.09-.148.848.848,0,0,0-.046-.182c-.016-.015-.029-.029-.04-.04l-.04-.04a.249.249,0,0,0-.182.057l-.114.113a1.6,1.6,0,0,1-.148.1c-.046.027-.1.059-.148.1-.03.015-.062.03-.1.045s-.07.031-.108.046c-.106.037-.221.071-.341.1a.285.285,0,0,1-.1.022.354.354,0,0,0-.09.012.678.678,0,0,0-.1.006.678.678,0,0,1-.1.006h-.1a.629.629,0,0,1-.2.017.654.654,0,0,1-.194-.029.381.381,0,0,0-.143-.017.313.313,0,0,1-.13-.017c-.092-.031-.181-.059-.268-.086a2.033,2.033,0,0,1-.255-.1,1.966,1.966,0,0,1-.711-.528,3.168,3.168,0,0,1-.5-.757,1.677,1.677,0,0,1-.09-.244c-.022-.079-.049-.161-.079-.244a.335.335,0,0,1-.011-.086.256.256,0,0,0-.024-.1c-.014-.061-.029-.127-.04-.2s-.024-.146-.04-.222a.183.183,0,0,1-.006-.079.166.166,0,0,0,0-.08v-.108a.664.664,0,0,0-.011-.108.65.65,0,0,1-.011-.131.488.488,0,0,1,.011-.119.674.674,0,0,0,.011-.109v-.108a.312.312,0,0,0,0-.108.243.243,0,0,1,.017-.108c.016-.083.029-.163.04-.239a1.473,1.473,0,0,1,.052-.228c.03-.091.056-.178.079-.262a1.581,1.581,0,0,1,.09-.25,3.416,3.416,0,0,1,.4-.648.243.243,0,0,1,.062-.063.251.251,0,0,0,.063-.063,1.183,1.183,0,0,1,.09-.1,1.355,1.355,0,0,1,.1-.091.25.25,0,0,0,.079-.062.242.242,0,0,1,.079-.063,2.658,2.658,0,0,1,.66-.319,1.191,1.191,0,0,1,.165-.034,1.4,1.4,0,0,0,.176-.034.917.917,0,0,1,.2-.029c.083,0,.167-.006.251-.006s.163,0,.244.012a1.082,1.082,0,0,1,.2.034c.114.038.224.072.33.1a1.289,1.289,0,0,1,.3.125c.054.038.1.075.148.109l.149.108c.03.022.073.053.13.09a.133.133,0,0,0,.165,0,.081.081,0,0,0,.046-.079.289.289,0,0,1,.022-.113v-.114a.24.24,0,0,0,.011-.079V15.766c0-.083,0-.177,0-.279a.368.368,0,0,1,.051-.233.22.22,0,0,1,.17-.113.067.067,0,0,1,.046-.006.067.067,0,0,0,.046-.006h.808c.09,0,.175,0,.249.011a.228.228,0,0,1,.171.091.43.43,0,0,1,.057.233V22.58Zm-1.547-2.23a.245.245,0,0,0,0-.1c0-.034,0-.066,0-.1,0-.075,0-.152-.011-.227a1.369,1.369,0,0,0-.035-.2c-.014-.084-.029-.159-.04-.228a.682.682,0,0,0-.062-.194,1.5,1.5,0,0,0-.462-.648,1.37,1.37,0,0,0-.87-.239.993.993,0,0,0-.182.023l-.165.04a.654.654,0,0,0-.141.051,1.007,1.007,0,0,0-.478.387,2.336,2.336,0,0,0-.273.591,1.159,1.159,0,0,0-.046.228,1.4,1.4,0,0,1-.046.239v.159a1.058,1.058,0,0,0-.011.278,1.288,1.288,0,0,0,.035.255.373.373,0,0,0,0,.063.212.212,0,0,1,.006.052c.014.06.029.117.04.171s.024.109.04.171a1.54,1.54,0,0,0,.66.876,1.139,1.139,0,0,0,.409.159.581.581,0,0,0,.136.012.48.48,0,0,0,.108.017.368.368,0,0,0,.119-.006,1.638,1.638,0,0,1,.182-.034.829.829,0,0,0,.182-.045,1.272,1.272,0,0,0,.454-.319,1.775,1.775,0,0,0,.3-.489,1.1,1.1,0,0,0,.068-.21c.014-.072.03-.15.044-.233a.36.36,0,0,0,.006-.108.225.225,0,0,1,.017-.109.29.29,0,0,0,.011-.079v-.2Z" fill="#fff"/><path d="M131.811,15.2a.4.4,0,0,1,.079.273v.659a.249.249,0,0,1-.079.217.316.316,0,0,1-.176.068c-.071.007-.149.011-.233.011h-.636a2.034,2.034,0,0,1-.222-.011.309.309,0,0,1-.165-.068.2.2,0,0,1-.062-.131,1.643,1.643,0,0,1-.024-.217c0-.079,0-.16,0-.244s.006-.156.006-.216,0-.116,0-.165a.3.3,0,0,1,.041-.131.148.148,0,0,1,.062-.068l.086-.045a.357.357,0,0,0,.057-.006.339.339,0,0,1,.056-.006h.832a1.883,1.883,0,0,1,.216.012A.253.253,0,0,1,131.811,15.2Zm.079,7.405c0,.152,0,.28-.011.386a.243.243,0,0,1-.2.216.36.36,0,0,1-.148.017c-.052,0-.109-.006-.17-.006h-.638a1.605,1.605,0,0,1-.2-.012.2.2,0,0,1-.143-.068.32.32,0,0,1-.075-.2c0-.079,0-.164,0-.255V17.654a.312.312,0,0,1,.046-.182.315.315,0,0,1,.192-.1.113.113,0,0,1,.063-.006.106.106,0,0,0,.062-.006h.57c.044,0,.1,0,.152-.006a.567.567,0,0,1,.143.006h.09a1.168,1.168,0,0,0,.125.034.137.137,0,0,1,.092.068.281.281,0,0,1,.051.159q0,.1,0,.217Z" fill="#fff"/><path d="M134.24,15.607H135a2.426,2.426,0,0,1,.3.017.23.23,0,0,1,.187.143.387.387,0,0,1,.022.136v.67q0,.057,0,.131a.437.437,0,0,0,0,.131v.125a1.287,1.287,0,0,0,.011.165.279.279,0,0,0,.057.131.366.366,0,0,0,.29.108c.14,0,.275.006.4.006h.136a.333.333,0,0,1,.124.023.238.238,0,0,1,.143.2,2.949,2.949,0,0,1,.017.329q0,.08,0,.159a.307.307,0,0,1-.016.136.252.252,0,0,1-.24.194c-.121.008-.257.011-.409.011a.849.849,0,0,1-.1-.006.211.211,0,0,0-.086.006.186.186,0,0,1-.079.006.1.1,0,0,0-.068.017.191.191,0,0,0-.13.1.692.692,0,0,0-.063.176.332.332,0,0,0,0,.125.328.328,0,0,1,0,.125v2.036c0,.19.006.355.017.5a.666.666,0,0,0,.143.37.31.31,0,0,0,.152.1c.065.019.132.036.2.051a.16.16,0,0,0,.073.006.107.107,0,0,1,.063.006h.125a1.872,1.872,0,0,1,.216.011.209.209,0,0,1,.148.091.312.312,0,0,1,.046.176v.222c0,.159,0,.3-.006.437a.27.27,0,0,1-.187.267.211.211,0,0,1-.1.017.2.2,0,0,0-.1.017h-.114a.568.568,0,0,1-.068-.006.183.183,0,0,0-.079.006.422.422,0,0,1-.119.006c-.043,0-.083-.006-.119-.006a1.1,1.1,0,0,0-.114.006.309.309,0,0,1-.1-.006h-.125a.658.658,0,0,0-.124-.011.676.676,0,0,1-.125-.011l-.148-.023-.136-.023a2.12,2.12,0,0,1-.24-.079,1.8,1.8,0,0,1-.216-.1.771.771,0,0,1-.068-.052c-.022-.018-.049-.04-.079-.062s-.035-.033-.057-.052-.041-.036-.057-.051a1.593,1.593,0,0,1-.24-.478.14.14,0,0,1-.016-.085.3.3,0,0,0-.006-.1.122.122,0,0,1-.011-.057.145.145,0,0,0-.011-.056v-.114a.3.3,0,0,1-.006-.1.9.9,0,0,0,.006-.113v-2.73c0-.052,0-.106,0-.159a.38.38,0,0,0-.016-.148.291.291,0,0,0-.16-.2.6.6,0,0,0-.317-.034.651.651,0,0,1-.33-.034.17.17,0,0,1-.114-.1,1.722,1.722,0,0,1-.046-.171v-.239a1.842,1.842,0,0,1,.024-.33c.014-.083.079-.14.194-.171a.154.154,0,0,1,.09-.017.783.783,0,0,0,.1.006,2.667,2.667,0,0,0,.319-.017.242.242,0,0,0,.2-.13.536.536,0,0,0,.04-.182c0-.068.006-.136.006-.2v-.9a.527.527,0,0,1,.022-.171.275.275,0,0,1,.171-.148.106.106,0,0,1,.062-.006A.1.1,0,0,0,134.24,15.607Z" fill="#fff"/><path d="M143.176,22.773a2.232,2.232,0,0,1,.029.25.162.162,0,0,1-.121.171.344.344,0,0,1-.159.034h-.8c-.068,0-.135,0-.2-.006a.262.262,0,0,1-.154-.052.281.281,0,0,1-.119-.131.43.43,0,0,0-.108-.142.235.235,0,0,0-.057-.04.151.151,0,0,0-.092-.006.642.642,0,0,0-.108.057.58.58,0,0,1-.108.056.675.675,0,0,1-.125.08l-.136.068a1.774,1.774,0,0,1-.306.108c-.106.026-.216.055-.33.085a.791.791,0,0,1-.154.029c-.049,0-.1.01-.154.017a.409.409,0,0,0-.068.006.383.383,0,0,1-.068.006h-.124a.583.583,0,0,1-.229,0h-.1a.437.437,0,0,0-.154-.017.376.376,0,0,1-.143-.017c-.075-.015-.148-.029-.216-.04a.691.691,0,0,1-.194-.063,1.862,1.862,0,0,1-.562-.325,1.359,1.359,0,0,1-.37-.528,1.589,1.589,0,0,1-.063-.171c-.019-.061-.036-.125-.051-.194a.237.237,0,0,1-.017-.113.46.46,0,0,0,0-.114.591.591,0,0,1-.017-.142.607.607,0,0,1,0-.153.973.973,0,0,0,.024-.194c.022-.083.044-.169.068-.256a.978.978,0,0,1,.09-.233,1.5,1.5,0,0,1,.444-.5,2.479,2.479,0,0,1,.636-.3,1.393,1.393,0,0,1,.308-.079c.1-.015.211-.034.317-.057a1.053,1.053,0,0,1,.194-.029,1.3,1.3,0,0,0,.2-.029.455.455,0,0,1,.159-.017.543.543,0,0,0,.171-.017.576.576,0,0,1,.159-.022.709.709,0,0,0,.171-.023c.159-.038.3-.07.438-.1a.7.7,0,0,0,.359-.2.516.516,0,0,0,.136-.228.1.1,0,0,0,0-.056.068.068,0,0,1,.006-.046.152.152,0,0,0,.011-.068v-.068a.908.908,0,0,1-.017-.09.363.363,0,0,0-.017-.08.715.715,0,0,0-.478-.466,1.2,1.2,0,0,0-.244-.052,1.829,1.829,0,0,0-.289-.011,2.176,2.176,0,0,0-.286.029,1.649,1.649,0,0,0-.238.056.625.625,0,0,0-.132.063,1.414,1.414,0,0,0-.119.086.756.756,0,0,0-.119.125.531.531,0,0,0-.086.148c-.038.075-.07.148-.1.216a.227.227,0,0,1-.165.136.8.8,0,0,1-.194.023h-.636a1.1,1.1,0,0,0-.114.006.3.3,0,0,1-.1-.006h-.1a.118.118,0,0,0-.057-.012.074.074,0,0,1-.056-.022.18.18,0,0,1-.125-.148.273.273,0,0,1,0-.113c.006-.038.014-.072.022-.1.022-.083.048-.161.075-.233a1.007,1.007,0,0,1,.1-.2c.022-.038.044-.075.068-.113s.044-.076.068-.114a1.354,1.354,0,0,1,.227-.239.325.325,0,0,0,.068-.056l.1-.08c.032-.022.065-.045.1-.068a1.879,1.879,0,0,1,.409-.2c.144-.049.292-.1.444-.142a1.8,1.8,0,0,1,.284-.045,2,2,0,0,0,.3-.045.417.417,0,0,1,.143,0c.063.007.1,0,.119-.012a6.962,6.962,0,0,1,.893.034,3.351,3.351,0,0,1,.773.171,1.942,1.942,0,0,1,.6.336,1.366,1.366,0,0,1,.387.54,1.307,1.307,0,0,1,.092.444c.006.167.011.338.011.512v2.975a1.675,1.675,0,0,0,.044.4.225.225,0,0,1,.013.074A.226.226,0,0,0,143.176,22.773ZM141.5,21.021a.777.777,0,0,0,0-.262.377.377,0,0,1-.022-.125.108.108,0,0,0-.046-.09.273.273,0,0,0-.171-.046c-.03.008-.056.013-.079.017l-.079.017a.989.989,0,0,1-.17.034,1.573,1.573,0,0,0-.182.034.332.332,0,0,1-.1.012,2,2,0,0,1-.3.045,1.2,1.2,0,0,0-.284.057c-.06.015-.117.029-.171.04a.876.876,0,0,0-.159.051,1.044,1.044,0,0,0-.4.308.733.733,0,0,0-.119.568.608.608,0,0,0,.125.319.543.543,0,0,0,.24.2,1.411,1.411,0,0,0,.346.108,1.533,1.533,0,0,0,.4.017,1.77,1.77,0,0,0,.392-.074.961.961,0,0,0,.467-.29,1.357,1.357,0,0,0,.262-.5.712.712,0,0,0,.029-.165.885.885,0,0,1,.029-.176Z" fill="#fff"/><path d="M145.413,15.607h.763a2.426,2.426,0,0,1,.3.017.23.23,0,0,1,.187.143.387.387,0,0,1,.022.136v.67q0,.057,0,.131a.437.437,0,0,0,0,.131v.125a1.287,1.287,0,0,0,.011.165.279.279,0,0,0,.057.131.366.366,0,0,0,.29.108c.14,0,.275.006.4.006h.136a.333.333,0,0,1,.124.023.238.238,0,0,1,.143.2,2.949,2.949,0,0,1,.017.329q0,.08,0,.159a.307.307,0,0,1-.016.136.252.252,0,0,1-.24.194c-.121.008-.257.011-.409.011a.849.849,0,0,1-.1-.006.211.211,0,0,0-.086.006.186.186,0,0,1-.079.006.1.1,0,0,0-.068.017.191.191,0,0,0-.13.1.692.692,0,0,0-.063.176.332.332,0,0,0,0,.125.328.328,0,0,1,0,.125v2.036c0,.19.006.355.017.5a.666.666,0,0,0,.143.37.31.31,0,0,0,.152.1c.065.019.132.036.2.051a.16.16,0,0,0,.073.006.107.107,0,0,1,.063.006h.125a1.872,1.872,0,0,1,.216.011.209.209,0,0,1,.148.091.312.312,0,0,1,.046.176v.222c0,.159,0,.3-.006.437a.27.27,0,0,1-.187.267.211.211,0,0,1-.1.017.2.2,0,0,0-.1.017h-.114a.568.568,0,0,1-.068-.006.183.183,0,0,0-.079.006.422.422,0,0,1-.119.006c-.043,0-.083-.006-.119-.006a1.1,1.1,0,0,0-.114.006.309.309,0,0,1-.1-.006h-.125a.658.658,0,0,0-.124-.011.676.676,0,0,1-.125-.011l-.148-.023L146.1,23.2a2.12,2.12,0,0,1-.24-.079,1.8,1.8,0,0,1-.216-.1.771.771,0,0,1-.068-.052c-.022-.018-.049-.04-.079-.062s-.035-.033-.057-.052-.041-.036-.057-.051a1.593,1.593,0,0,1-.24-.478.14.14,0,0,1-.016-.085.3.3,0,0,0-.006-.1.122.122,0,0,1-.011-.057.145.145,0,0,0-.011-.056v-.114a.3.3,0,0,1-.006-.1.9.9,0,0,0,.006-.113v-2.73c0-.052,0-.106,0-.159a.38.38,0,0,0-.016-.148.291.291,0,0,0-.16-.2.6.6,0,0,0-.317-.034.651.651,0,0,1-.33-.034.17.17,0,0,1-.114-.1,1.722,1.722,0,0,1-.046-.171v-.239a1.842,1.842,0,0,1,.024-.33c.014-.083.079-.14.194-.171a.154.154,0,0,1,.09-.017.783.783,0,0,0,.1.006,2.667,2.667,0,0,0,.319-.017.242.242,0,0,0,.2-.13.536.536,0,0,0,.04-.182c0-.068.006-.136.006-.2v-.9a.527.527,0,0,1,.022-.171.275.275,0,0,1,.171-.148.106.106,0,0,1,.062-.006A.1.1,0,0,0,145.413,15.607Z" fill="#fff"/><path d="M150.571,15.2a.4.4,0,0,1,.079.273v.659a.249.249,0,0,1-.079.217.316.316,0,0,1-.176.068c-.071.007-.149.011-.233.011h-.636a2.034,2.034,0,0,1-.222-.011.309.309,0,0,1-.165-.068.2.2,0,0,1-.062-.131,1.643,1.643,0,0,1-.024-.217c0-.079,0-.16,0-.244s.006-.156.006-.216,0-.116,0-.165a.3.3,0,0,1,.041-.131.148.148,0,0,1,.062-.068l.086-.045a.357.357,0,0,0,.057-.006.339.339,0,0,1,.056-.006h.832a1.883,1.883,0,0,1,.216.012A.253.253,0,0,1,150.571,15.2Zm.079,7.405c0,.152,0,.28-.011.386a.243.243,0,0,1-.2.216.36.36,0,0,1-.148.017c-.052,0-.109-.006-.17-.006h-.638a1.605,1.605,0,0,1-.2-.012.2.2,0,0,1-.143-.068.32.32,0,0,1-.075-.2c0-.079,0-.164,0-.255V17.654a.312.312,0,0,1,.046-.182.315.315,0,0,1,.192-.1.113.113,0,0,1,.063-.006.106.106,0,0,0,.062-.006h.57c.044,0,.1,0,.152-.006a.567.567,0,0,1,.143.006h.09a1.168,1.168,0,0,0,.125.034.137.137,0,0,1,.092.068.281.281,0,0,1,.051.159q0,.1,0,.217Z" fill="#fff"/><path d="M158.1,20.054a.855.855,0,0,1,0,.387v.113a.592.592,0,0,0-.017.182.594.594,0,0,1-.017.182,1.272,1.272,0,0,0-.033.148c-.008.046-.016.1-.024.148-.03.083-.056.168-.079.255a1.194,1.194,0,0,1-.09.244,2.5,2.5,0,0,1-.625.888,3.365,3.365,0,0,1-.933.568,1.455,1.455,0,0,1-.279.086c-.1.019-.19.04-.29.063a.327.327,0,0,1-.124.022.612.612,0,0,0-.125.012.5.5,0,0,0-.075.006.5.5,0,0,1-.073.006,1.468,1.468,0,0,1-.182.017.576.576,0,0,1-.194-.017h-.114a.4.4,0,0,0-.119-.006.253.253,0,0,1-.119-.017.374.374,0,0,0-.086-.011.54.54,0,0,1-.1-.011c-.076-.023-.151-.042-.227-.057a1.022,1.022,0,0,1-.216-.068c-.092-.03-.176-.06-.257-.091a2.074,2.074,0,0,1-.244-.113,2.945,2.945,0,0,1-.682-.558,2.828,2.828,0,0,1-.478-.762.888.888,0,0,1-.086-.216c-.019-.076-.04-.156-.062-.239a.265.265,0,0,1-.022-.1.271.271,0,0,0-.024-.1.812.812,0,0,1-.022-.187.824.824,0,0,0-.022-.188.5.5,0,0,1-.013-.1v-.1a.557.557,0,0,1-.016-.193.7.7,0,0,1,.029-.194v-.079a.5.5,0,0,0,0-.12.252.252,0,0,1,.017-.119.532.532,0,0,0,.011-.109.309.309,0,0,1,.022-.108c.03-.1.057-.2.081-.29a1.763,1.763,0,0,1,.09-.279,2.88,2.88,0,0,1,.489-.779,3.462,3.462,0,0,1,.693-.574,2.529,2.529,0,0,1,.24-.1c.083-.03.167-.064.251-.1a1.424,1.424,0,0,1,.306-.079,2.879,2.879,0,0,0,.33-.068,1.464,1.464,0,0,1,.171-.011,1.084,1.084,0,0,0,.159-.012,3.723,3.723,0,0,1,1.143.136,3.07,3.07,0,0,1,.858.409c.084.061.17.128.257.2a1.332,1.332,0,0,1,.222.233c.06.076.114.152.163.228s.1.156.154.239a1.1,1.1,0,0,1,.125.267c.03.094.065.2.1.3a1.368,1.368,0,0,1,.056.193c.016.068.03.136.046.2a.363.363,0,0,1,.011.091.448.448,0,0,0,.011.091.235.235,0,0,1,.013.125A.218.218,0,0,0,158.1,20.054Zm-1.593.409a1.226,1.226,0,0,0,0-.329v-.091a.352.352,0,0,1-.022-.125.742.742,0,0,0-.011-.125.178.178,0,0,0-.011-.068c-.016-.061-.029-.124-.041-.188a.969.969,0,0,0-.051-.188,2.058,2.058,0,0,0-.3-.506,1.192,1.192,0,0,0-.455-.335c-.046-.015-.09-.029-.136-.04s-.1-.025-.148-.04a.644.644,0,0,0-.194-.017c-.068,0-.136.006-.2.006a.112.112,0,0,1-.079.017.182.182,0,0,0-.079.006c-.054.015-.1.028-.154.04a.437.437,0,0,0-.13.051,1.145,1.145,0,0,0-.462.359,1.868,1.868,0,0,0-.278.54,1.416,1.416,0,0,0-.052.239c-.011.083-.024.167-.04.25a.558.558,0,0,0-.011.114v.113a.819.819,0,0,0-.017.239,1.194,1.194,0,0,0,.029.239v.1a1.568,1.568,0,0,1,.035.176,1.487,1.487,0,0,0,.033.176,2.658,2.658,0,0,0,.244.552,1.193,1.193,0,0,0,.416.381.686.686,0,0,0,.176.091,1.861,1.861,0,0,0,.2.056.187.187,0,0,0,.079.006.187.187,0,0,1,.079.006.682.682,0,0,0,.1.017.262.262,0,0,0,.1-.006h.09a1.573,1.573,0,0,1,.182-.034.623.623,0,0,0,.17-.045,1.262,1.262,0,0,0,.478-.307,1.674,1.674,0,0,0,.308-.478,1.4,1.4,0,0,0,.068-.228c.014-.076.033-.156.057-.239a.423.423,0,0,0,.011-.086.333.333,0,0,1,.011-.085v-.108A.532.532,0,0,1,156.509,20.464Z" fill="#fff"/><path d="M162.81,17.21a2.459,2.459,0,0,1,1.138.194,1.672,1.672,0,0,1,.717.637,1.229,1.229,0,0,1,.125.267c.03.094.06.191.09.29a1.254,1.254,0,0,1,.029.171.7.7,0,0,0,.029.159.233.233,0,0,0,.011.091,2.467,2.467,0,0,1,.022.329v3.186c0,.144,0,.282,0,.415a.25.25,0,0,1-.165.255.488.488,0,0,1-.16.023h-.8a1.531,1.531,0,0,1-.246-.017.232.232,0,0,1-.163-.1.345.345,0,0,1-.052-.177c0-.071,0-.149,0-.232V20.214c0-.281-.011-.54-.035-.779a1.265,1.265,0,0,0-.2-.609.836.836,0,0,0-.467-.318.321.321,0,0,0-.119-.023.409.409,0,0,1-.13-.023.572.572,0,0,0-.143-.006.749.749,0,0,0-.13.017.37.37,0,0,1-.081.011A.236.236,0,0,0,162,18.5a1.279,1.279,0,0,0-.421.182,1.065,1.065,0,0,0-.432.762,8.314,8.314,0,0,0-.068,1.126v2.321a.365.365,0,0,1-.035.171.239.239,0,0,1-.181.148,1.7,1.7,0,0,1-.308.023h-.568c-.084,0-.168,0-.251-.011a.256.256,0,0,1-.182-.08.449.449,0,0,1-.073-.3q0-.194,0-.364v-4.63c0-.083,0-.159.006-.228a.279.279,0,0,1,.062-.171.139.139,0,0,1,.075-.051.822.822,0,0,1,.108-.029h.057a.644.644,0,0,1,.119-.011h.6c.062,0,.121,0,.176.006a.618.618,0,0,1,.154.029.186.186,0,0,1,.108.1,1.2,1.2,0,0,1,.052.159.2.2,0,0,1,0,.08.094.094,0,0,0,.017.068.158.158,0,0,0,.04.068l.051.034a.223.223,0,0,0,.2-.086.744.744,0,0,1,.171-.153,2.677,2.677,0,0,1,.682-.364.949.949,0,0,1,.209-.045c.073-.008.151-.019.233-.034a.281.281,0,0,1,.1-.006A.188.188,0,0,0,162.81,17.21Z" fill="#fff"/></svg>