<?xml version="1.0" encoding="UTF-8"?>
<svg width="32px" height="32px" viewBox="0 0 32 32" version="1.1" xmlns="http://www.w3.org/2000/svg" xmlns:xlink="http://www.w3.org/1999/xlink">
    <title>path1351</title>
    <g id="Symbols" stroke="none" stroke-width="1" fill="none" fill-rule="evenodd">
        <g id="Desktop/Footer" transform="translate(-762.000000, -105.000000)" fill="#000000" fill-rule="nonzero" stroke="#000000">
            <g id="Yin_and_yang" transform="translate(763.000000, 106.000000)">
                <path d="M13.9835056,29.9568975 C7.51543895,29.619877 1.69066423,24.5853968 0.363643186,18.2652733 C-0.856736463,12.9886565 1.05464944,7.1499581 5.19484965,3.64511557 C8.13230993,1.09226625 12.0799848,-0.25328871 15.9685783,0.0395748545 C22.126896,0.289408114 27.7652211,4.84991482 29.4239649,10.7646484 C30.1039288,12.938281 30.1020185,15.2717948 29.8274188,17.5105303 C28.8916959,23.2112153 24.4040784,28.1347682 18.7775571,29.5125539 C17.2218282,29.8946055 15.5830226,30.09351 13.9835056,29.9568975 Z M11.6792124,29.0369129 C8.93534248,27.6911063 7.2390458,24.5733325 7.6281468,21.5399071 C7.93904788,17.9640696 11.1946663,15.0091085 14.7731707,14.9451407 C17.7691439,15.037451 20.7238287,13.175989 21.8123165,10.3667337 C23.1156831,7.29518708 21.9891071,3.44002228 19.2200009,1.56416494 C16.9501423,-0.107800942 13.9130864,0.246813657 11.3297037,0.827920922 C5.35814355,2.29041168 0.741021505,7.87889971 0.407409179,14.0087825 C-0.0281885678,19.5407098 3.02004798,25.12502 7.89741158,27.7726495 C9.11880966,28.4317892 10.8532596,29.2021169 11.9959112,29.2178931 L11.8695198,29.140613 L11.6792131,29.0369129 L11.6792124,29.0369129 Z" id="path1351"></path>
            </g>
        </g>
    </g>
</svg>